<svg xmlns="http://www.w3.org/2000/svg" xmlns:xlink="http://www.w3.org/1999/xlink" viewBox="0 0 840.94 285.62"><defs><style>.cls-1{fill:#596770;}.cls-2{fill:#2a6daf;}.cls-3{fill:url(#Degradado_sin_nombre_13);}.cls-4{fill:url(#Degradado_sin_nombre_10);}.cls-5{fill:url(#Degradado_sin_nombre_13-2);}</style><linearGradient id="Degradado_sin_nombre_13" x1="245.92" y1="513.71" x2="306.87" y2="756.92" gradientUnits="userSpaceOnUse"><stop offset="0" stop-color="#85e2f4"/><stop offset="1" stop-color="#023a91"/></linearGradient><linearGradient id="Degradado_sin_nombre_10" x1="654.92" y1="465.95" x2="526.23" y2="682.35" gradientTransform="matrix(-1, 0, 0, 1, 809.09, 0)" gradientUnits="userSpaceOnUse"><stop offset="0" stop-color="#023a91"/><stop offset="1" stop-color="#85e2f4"/></linearGradient><linearGradient id="Degradado_sin_nombre_13-2" x1="248.96" y1="515.26" x2="252.52" y2="682.34" xlink:href="#Degradado_sin_nombre_13"/></defs><title>safesale-logo-new-01</title><g id="propuesta01"><path class="cls-1" d="M440,576.72q-12.73-4.24-20.11-11.62a25.22,25.22,0,0,1,35.75-35.6,21.17,21.17,0,0,1,5.66,8.86l-6,2.38a18.46,18.46,0,0,0-4.39-6.7,18.56,18.56,0,0,0-26.21,26.29,49.86,49.86,0,0,0,14,9.16,59.07,59.07,0,0,1,24.05,14.37A35.26,35.26,0,1,1,403,614.48l6.33-2.31a28.73,28.73,0,1,0,48.85-23.68A54.4,54.4,0,0,0,440,576.72Z" transform="translate(-141.99 -474.01)"/><path class="cls-1" d="M563.13,642.71h-6.7V627.81a50.36,50.36,0,0,1-4.24,5,40.92,40.92,0,1,1,0-57.86,50.67,50.67,0,0,1,4.24,5V569.58h6.7Zm-6.7-32.17V597.28a33.46,33.46,0,1,0,0,13.26Z" transform="translate(-141.99 -474.01)"/><path class="cls-1" d="M591.34,576.28v66.43h-6.7V576.28H577.2v-6.7h7.45V549.77A21.27,21.27,0,0,1,591,535.54,20.1,20.1,0,0,1,605,529.88a27.41,27.41,0,0,1,8.79,1.56l-2.09,6a15.29,15.29,0,0,0-6-1.34,14.69,14.69,0,0,0-10,4.24,14.18,14.18,0,0,0-4.39,9.91v19.36h14.89v6.7Z" transform="translate(-141.99 -474.01)"/><path class="cls-1" d="M630.73,629a32.21,32.21,0,0,0,22.49,8.64,32.57,32.57,0,0,0,23.91-9.9q1.27-1.27,2.38-2.61l7.07,2.53a42.39,42.39,0,0,1-4.39,5.14,40.86,40.86,0,1,1-3.57-61.14q1.79,1.49,3.57,3.28.67.67,1.27,1.34l-5.06,5.06Zm42.75-52.2a33.79,33.79,0,0,0-47.29,47.29Z" transform="translate(-141.99 -474.01)"/><path class="cls-2" d="M724.41,581.57q-12.66-4.24-20.52-12.1A26.45,26.45,0,0,1,696,550a27.91,27.91,0,0,1,47.59-19.66q4.61,4.47,7.75,14.22l-14,5.51q-2.53-6.85-4.62-8.94a12.63,12.63,0,0,0-17.65,0,11.94,11.94,0,0,0-3.65,8.82,12.06,12.06,0,0,0,3.65,8.86,40.19,40.19,0,0,0,11.32,7.37,58.59,58.59,0,0,1,23.76,14.3,35.45,35.45,0,0,1,10.95,26.21A37.13,37.13,0,0,1,697.67,633q-8.71-8.71-11-24.05l15-5.44q1.41,13.18,6.93,18.69a21.83,21.83,0,0,0,30.83-30.91A45.24,45.24,0,0,0,724.41,581.57Z" transform="translate(-141.99 -474.01)"/><path class="cls-2" d="M838.71,571.44v-5.36H854.2v76.71H838.71v-9.61q-11.17,11.54-25.91,11.54a42.37,42.37,0,1,1,0-84.75Q827.54,560,838.71,571.44Zm0,36.57V596.68a25,25,0,0,0-7.15-13.11,26.51,26.51,0,1,0,0,37.53A25,25,0,0,0,838.71,608Z" transform="translate(-141.99 -474.01)"/><path class="cls-2" d="M888.29,523.48V642.71H872.8V523.48Z" transform="translate(-141.99 -474.01)"/><path class="cls-2" d="M930.65,625.35q3.87,3.43,14.08,3.43A25.8,25.8,0,0,0,963.57,621q1-1,3.95-4.62l15.42,5.51a99.93,99.93,0,0,1-8.19,10.35,42.39,42.39,0,1,1-3.65-63.38q1.86,1.56,3.65,3.35.74.75,4.24,4.69l-7.75,7.82Zm25.77-47.66q-2.61-2-11.69-2a26.57,26.57,0,0,0-26.51,26.59q0,9,2,11.69Z" transform="translate(-141.99 -474.01)"/><path class="cls-1" d="M406.88,711.16V678.43h4.23v28.48h11.7v4.26Z" transform="translate(-141.99 -474.01)"/><path class="cls-1" d="M454.32,682.91A16.74,16.74,0,1,1,442.48,678,16.15,16.15,0,0,1,454.32,682.91Zm-11.85-.63a12.47,12.47,0,1,0,8.83,3.65A12,12,0,0,0,442.48,682.28Z" transform="translate(-141.99 -474.01)"/><path class="cls-1" d="M490.21,703.37l3.17,2.84q-5.81,5.3-12.29,5.3a16.72,16.72,0,0,1,0-33.45q6.48,0,12.29,5.3l-3.17,2.89a13.64,13.64,0,0,0-9.12-3.89,12.45,12.45,0,0,0,0,24.9A13.63,13.63,0,0,0,490.21,703.37Z" transform="translate(-141.99 -474.01)"/><path class="cls-1" d="M509.8,678.43l11.91,32.73h-4.5L513,699.58h-8.67l-4.19,11.58h-4.52l11.91-32.73Zm1.66,16.92-2.8-7.67-2.78,7.67Z" transform="translate(-141.99 -474.01)"/><path class="cls-1" d="M525.8,711.16V678.43H530v28.48h11.7v4.26Z" transform="translate(-141.99 -474.01)"/><path class="cls-1" d="M551.29,678.43v32.73h-4.23V678.43Z" transform="translate(-141.99 -474.01)"/><path class="cls-1" d="M574.31,682.67H558.8v-4.24h22.83l-16.47,28.48h15.55v4.26H557.86Z" transform="translate(-141.99 -474.01)"/><path class="cls-1" d="M599.94,678.43l11.91,32.73h-4.5l-4.22-11.58h-8.67l-4.19,11.58h-4.52l11.91-32.73Zm1.66,16.92-2.8-7.67L596,695.35Z" transform="translate(-141.99 -474.01)"/><path class="cls-1" d="M615.94,678.43h3.87l13.5,23.36V678.43h4.26v32.73h-3.7l-13.69-23.65v23.65h-4.23Z" transform="translate(-141.99 -474.01)"/><path class="cls-1" d="M646.81,678.43q8,0,12.44,4.52a16.79,16.79,0,0,1,0,23.69q-4.46,4.48-12.44,4.52H643.7V678.43Zm1.13,4.32v24.12a11.18,11.18,0,0,0,8.29-3.25,12.5,12.5,0,0,0,0-17.64A11.22,11.22,0,0,0,647.93,682.75Z" transform="translate(-141.99 -474.01)"/><path class="cls-1" d="M697.36,682.91A16.74,16.74,0,1,1,685.52,678,16.14,16.14,0,0,1,697.36,682.91Zm-11.84-.63a12.47,12.47,0,1,0,8.83,3.65A12,12,0,0,0,685.52,682.28Z" transform="translate(-141.99 -474.01)"/><path class="cls-1" d="M731.73,682.67v28.5h-4.26v-28.5h-7.63v-4.24h19.52v4.24Z" transform="translate(-141.99 -474.01)"/><path class="cls-1" d="M761.45,678.43h4.26v23.06a11.45,11.45,0,0,1-3.25,6.67,11.13,11.13,0,0,1-19-7.85V678.43h4.25V700.3a6.87,6.87,0,0,0,13.75,0Z" transform="translate(-141.99 -474.01)"/><path class="cls-1" d="M791,678.43v32.73h-4.23V678.43Z" transform="translate(-141.99 -474.01)"/><path class="cls-1" d="M797.54,678.43h3.87l13.5,23.36V678.43h4.26v32.73h-3.7l-13.69-23.65v23.65h-4.24Z" transform="translate(-141.99 -474.01)"/><path class="cls-1" d="M830.17,678.43l10.62,18.35,10.58-18.35h3.87v32.73H851V687.51l-10.21,17.68-10.25-17.68v23.65h-4.23V678.43Z" transform="translate(-141.99 -474.01)"/><path class="cls-1" d="M880.38,678.43h4.26v23.06a11.45,11.45,0,0,1-3.25,6.67,11.13,11.13,0,0,1-19-7.85V678.43h4.26V700.3a6.87,6.87,0,0,0,13.75,0Z" transform="translate(-141.99 -474.01)"/><path class="cls-1" d="M908.4,678.43v4.24H895v10h13.4v4.23H895v10h13.4v4.26H890.77V678.43Z" transform="translate(-141.99 -474.01)"/><path class="cls-1" d="M920.66,678.43a6.9,6.9,0,0,1,6.89,6.87,3.41,3.41,0,0,1-2.95,3.62q2.13.31,4.84,3a10.2,10.2,0,0,1,2.71,7.53,11.56,11.56,0,0,1-3.38,8.31q-3.17,3.29-6.36,3.33v0H914V678.43Zm-2.39,4.24v5.18H921a2.62,2.62,0,0,0,1.62-.72,2.35,2.35,0,0,0,.74-1.82,2.53,2.53,0,0,0-.77-1.89,2.69,2.69,0,0,0-2-.75Zm0,9.53v14.71h4.15v-.06q1.31-.08,3.25-2.11a7.29,7.29,0,0,0,2.15-5.26,7.3,7.3,0,0,0-7.28-7.28Z" transform="translate(-141.99 -474.01)"/><path class="cls-1" d="M937.06,711.16V678.43h4.24v28.48H953v4.26Z" transform="translate(-141.99 -474.01)"/><path class="cls-1" d="M975.55,678.43v4.24h-13.4v10h13.4v4.23h-13.4v10h13.4v4.26H957.91V678.43Z" transform="translate(-141.99 -474.01)"/><path class="cls-3" d="M174,584.66c.74-44.79,38.55-76.35,75.54-76,85.14.84,123.87,113.61,2.41,251,0,0,108.35-74.1,108.35-176,0-87.12-78.69-109.63-110-109.63-57.82,5.37-95.06,57-87,111.09,6.61,44.3,44.92,65.25,44.92,65.25S173.3,627.9,174,584.66Z" transform="translate(-141.99 -474.01)"/><path class="cls-4" d="M163.8,585.16C171.64,632.06,213,662.9,251,662.9c29.53,0,80.93-22.69,76.43-86.87,13.89,82.36-59.75,166.6-75.44,183.6,0,0-110-74.1-110-176C142,496.53,220.68,474,252,474,191.68,479.14,154.93,532.15,163.8,585.16Z" transform="translate(-141.99 -474.01)"/><path class="cls-5" d="M251.25,584.32a39.53,39.53,0,0,1-15.7-9.26,20.22,20.22,0,0,1-6-14.9,21.35,21.35,0,0,1,36.41-15q3.53,3.42,5.92,10.88l-10.71,4.21q-1.94-5.24-3.53-6.84a9.67,9.67,0,0,0-13.5,0,9.14,9.14,0,0,0-2.79,6.75,9.23,9.23,0,0,0,2.79,6.78,30.73,30.73,0,0,0,8.66,5.64A44.83,44.83,0,0,1,271,583.52a27.13,27.13,0,0,1,8.38,20.05,28.4,28.4,0,0,1-48.54,20.11q-6.66-6.66-8.43-18.4l11.45-4.16q1.08,10.09,5.3,14.3a16.7,16.7,0,0,0,23.59-23.65A34.63,34.63,0,0,0,251.25,584.32Z" transform="translate(-141.99 -474.01)"/></g></svg>