<svg width="20" height="20" viewBox="0 0 20 20" fill="none" xmlns="http://www.w3.org/2000/svg">
<path d="M10 1.875C5.51992 1.875 1.875 5.51992 1.875 10C1.875 14.4801 5.51992 18.125 10 18.125C14.4801 18.125 18.125 14.4801 18.125 10C18.125 5.51992 14.4801 1.875 10 1.875ZM8.03828 6.43828C8.5332 5.91367 9.22969 5.625 10 5.625C10.7703 5.625 11.4605 5.91563 11.9574 6.44297C12.4609 6.97734 12.7059 7.69531 12.648 8.46719C12.5324 10 11.3449 11.25 10 11.25C8.65508 11.25 7.46523 10 7.35195 8.4668C7.29453 7.68867 7.53906 6.96836 8.03828 6.43828ZM10 16.875C9.08221 16.8756 8.17365 16.6919 7.32819 16.3348C6.48272 15.9777 5.71758 15.4544 5.07812 14.7961C5.44436 14.2738 5.911 13.8298 6.45078 13.4898C7.44648 12.8516 8.70664 12.5 10 12.5C11.2934 12.5 12.5535 12.8516 13.548 13.4898C14.0883 13.8296 14.5553 14.2737 14.9219 14.7961C14.2825 15.4545 13.5173 15.9778 12.6719 16.3349C11.8264 16.692 10.9178 16.8757 10 16.875Z" fill="white"/>
</svg>
