<svg id="mesa2" xmlns="http://www.w3.org/2000/svg" xmlns:xlink="http://www.w3.org/1999/xlink" viewBox="0 0 842 285.98"><defs><style>.cls-1{fill:#596770;}.cls-2{fill:#2a6daf;}.cls-3{fill:url(#Degradado_sin_nombre_13);}.cls-4{fill:url(#Degradado_sin_nombre_10);}.cls-5{fill:url(#Degradado_sin_nombre_13-2);}</style><linearGradient id="Degradado_sin_nombre_13" x1="1407.07" y1="324.51" x2="1467.27" y2="564.75" gradientUnits="userSpaceOnUse"><stop offset="0" stop-color="#85e2f4"/><stop offset="1" stop-color="#023a91"/></linearGradient><linearGradient id="Degradado_sin_nombre_10" x1="-497.99" y1="278.11" x2="-624.21" y2="490.36" gradientTransform="matrix(-1, 0, 0, 1, 809.09, 0)" gradientUnits="userSpaceOnUse"><stop offset="0" stop-color="#023a91"/><stop offset="1" stop-color="#85e2f4"/></linearGradient><linearGradient id="Degradado_sin_nombre_13-2" x1="1407.02" y1="323.51" x2="1410.58" y2="490.8" xlink:href="#Degradado_sin_nombre_13"/></defs><title>safesale-logo-new-01a</title><path class="cls-1" d="M1598.35,385q-12.75-4.25-20.13-11.63A25.26,25.26,0,0,1,1614,337.77a21.19,21.19,0,0,1,5.67,8.87l-6,2.39a18.49,18.49,0,0,0-4.4-6.71A18.59,18.59,0,0,0,1583,368.64a49.93,49.93,0,0,0,14,9.17,59.14,59.14,0,0,1,24.09,14.39,35.3,35.3,0,1,1-59.88,30.65l6.34-2.31a28.77,28.77,0,1,0,48.92-23.71A54.47,54.47,0,0,0,1598.35,385Z" transform="translate(-1299.91 -282.21)"/><path class="cls-1" d="M1721.59,451.11h-6.71V436.2a50.42,50.42,0,0,1-4.25,5,41,41,0,1,1,0-57.94,50.74,50.74,0,0,1,4.25,5V377.89h6.71Zm-6.71-32.21V405.63a33.5,33.5,0,1,0,0,13.27Z" transform="translate(-1299.91 -282.21)"/><path class="cls-1" d="M1749.83,384.6v66.51h-6.71V384.6h-7.46v-6.71h7.46V358.05a21.3,21.3,0,0,1,6.34-14.24,20.13,20.13,0,0,1,14.09-5.67,27.44,27.44,0,0,1,8.8,1.57l-2.09,6a15.31,15.31,0,0,0-6-1.34,14.7,14.7,0,0,0-10,4.25,14.2,14.2,0,0,0-4.4,9.92v19.39h14.91v6.71Z" transform="translate(-1299.91 -282.21)"/><path class="cls-1" d="M1789.27,437.39a32.25,32.25,0,0,0,22.52,8.65,32.62,32.62,0,0,0,23.94-9.92q1.27-1.27,2.39-2.61l7.08,2.54a42.44,42.44,0,0,1-4.4,5.14,40.91,40.91,0,1,1-3.58-61.22q1.79,1.49,3.58,3.28.67.67,1.27,1.34l-5.07,5.07Zm42.8-52.27a33.83,33.83,0,0,0-47.35,47.35Z" transform="translate(-1299.91 -282.21)"/><path class="cls-2" d="M1883.07,389.89q-12.68-4.25-20.54-12.12a26.48,26.48,0,0,1-7.87-19.5,27.95,27.95,0,0,1,47.65-19.68q4.62,4.47,7.75,14.24l-14,5.52q-2.53-6.86-4.62-8.95a12.65,12.65,0,0,0-17.67,0,12,12,0,0,0-3.65,8.84,12.08,12.08,0,0,0,3.65,8.87,40.24,40.24,0,0,0,11.33,7.38,58.66,58.66,0,0,1,23.79,14.32,35.49,35.49,0,0,1,11,26.25,37.17,37.17,0,0,1-63.53,26.32q-8.72-8.72-11-24.09l15-5.44q1.41,13.2,6.93,18.72a21.86,21.86,0,0,0,30.87-30.95A45.29,45.29,0,0,0,1883.07,389.89Z" transform="translate(-1299.91 -282.21)"/><path class="cls-2" d="M1997.51,379.75v-5.37H2013v76.8h-15.51v-9.62q-11.18,11.56-25.95,11.56a42.43,42.43,0,1,1,0-84.86Q1986.32,368.27,1997.51,379.75Zm0,36.61V405a25,25,0,0,0-7.16-13.12,26.55,26.55,0,1,0,0,37.58A25,25,0,0,0,1997.51,416.36Z" transform="translate(-1299.91 -282.21)"/><path class="cls-2" d="M2047.15,331.73V451.11h-15.51V331.73Z" transform="translate(-1299.91 -282.21)"/><path class="cls-2" d="M2089.57,433.74q3.88,3.43,14.09,3.43a25.84,25.84,0,0,0,18.87-7.75q1-1,4-4.62l15.43,5.52a100.06,100.06,0,0,1-8.2,10.36,42.44,42.44,0,1,1-3.65-63.46q1.86,1.57,3.65,3.36.74.75,4.25,4.7l-7.75,7.83Zm25.8-47.72q-2.61-2-11.71-2a26.6,26.6,0,0,0-26.54,26.62q0,9,2,11.71Z" transform="translate(-1299.91 -282.21)"/><path class="cls-1" d="M1565.14,519.66V486.88h4.24V515.4h11.72v4.26Z" transform="translate(-1299.91 -282.21)"/><path class="cls-1" d="M1612.64,491.37a16.77,16.77,0,1,1-11.86-4.92A16.17,16.17,0,0,1,1612.64,491.37Zm-11.86-.63a12.48,12.48,0,1,0,8.84,3.66A12,12,0,0,0,1600.78,490.73Z" transform="translate(-1299.91 -282.21)"/><path class="cls-1" d="M1648.57,511.85l3.18,2.85q-5.82,5.31-12.31,5.3a16.74,16.74,0,0,1,0-33.49q6.49,0,12.31,5.3l-3.18,2.89a13.65,13.65,0,0,0-9.13-3.89,12.46,12.46,0,0,0,0,24.93A13.65,13.65,0,0,0,1648.57,511.85Z" transform="translate(-1299.91 -282.21)"/><path class="cls-1" d="M1668.19,486.88l11.92,32.77h-4.51l-4.22-11.59h-8.68l-4.2,11.59H1654l11.92-32.77Zm1.66,16.94-2.81-7.68-2.79,7.68Z" transform="translate(-1299.91 -282.21)"/><path class="cls-1" d="M1684.21,519.66V486.88h4.24V515.4h11.72v4.26Z" transform="translate(-1299.91 -282.21)"/><path class="cls-1" d="M1709.73,486.88v32.77h-4.24V486.88Z" transform="translate(-1299.91 -282.21)"/><path class="cls-1" d="M1732.78,491.12h-15.53v-4.24h22.86l-16.49,28.51h15.57v4.26h-22.88Z" transform="translate(-1299.91 -282.21)"/><path class="cls-1" d="M1758.44,486.88l11.92,32.77h-4.51l-4.22-11.59H1753l-4.2,11.59h-4.53l11.92-32.77Zm1.66,16.94-2.81-7.68-2.79,7.68Z" transform="translate(-1299.91 -282.21)"/><path class="cls-1" d="M1774.46,486.88h3.87l13.52,23.39V486.88h4.26v32.77h-3.71L1778.7,496v23.68h-4.24Z" transform="translate(-1299.91 -282.21)"/><path class="cls-1" d="M1805.37,486.88q8,0,12.45,4.53a16.81,16.81,0,0,1,0,23.72q-4.47,4.49-12.45,4.53h-3.11V486.88Zm1.13,4.32v24.15a11.2,11.2,0,0,0,8.3-3.26,12.51,12.51,0,0,0,0-17.66A11.23,11.23,0,0,0,1806.5,491.2Z" transform="translate(-1299.91 -282.21)"/><path class="cls-1" d="M1856,491.37a16.76,16.76,0,1,1-11.86-4.92A16.16,16.16,0,0,1,1856,491.37Zm-11.86-.63a12.48,12.48,0,1,0,8.84,3.66A12,12,0,0,0,1844.12,490.73Z" transform="translate(-1299.91 -282.21)"/><path class="cls-1" d="M1890.4,491.12v28.53h-4.26V491.12h-7.64v-4.24H1898v4.24Z" transform="translate(-1299.91 -282.21)"/><path class="cls-1" d="M1920.16,486.88h4.26V510a11.46,11.46,0,0,1-3.26,6.68,11.14,11.14,0,0,1-19-7.86v-21.9h4.26v21.9a6.88,6.88,0,0,0,13.77,0Z" transform="translate(-1299.91 -282.21)"/><path class="cls-1" d="M1949.72,486.88v32.77h-4.24V486.88Z" transform="translate(-1299.91 -282.21)"/><path class="cls-1" d="M1956.29,486.88h3.87l13.52,23.39V486.88h4.26v32.77h-3.71L1960.53,496v23.68h-4.24Z" transform="translate(-1299.91 -282.21)"/><path class="cls-1" d="M1989,486.88l10.63,18.37,10.59-18.37h3.87v32.77h-4.24V496l-10.22,17.7L1989.33,496v23.68h-4.24V486.88Z" transform="translate(-1299.91 -282.21)"/><path class="cls-1" d="M2039.23,486.88h4.26V510a11.46,11.46,0,0,1-3.26,6.68,11.14,11.14,0,0,1-19-7.86v-21.9h4.26v21.9a6.88,6.88,0,0,0,13.77,0Z" transform="translate(-1299.91 -282.21)"/><path class="cls-1" d="M2067.29,486.88v4.24h-13.42v10h13.42v4.24h-13.42v10h13.42v4.26h-17.66V486.88Z" transform="translate(-1299.91 -282.21)"/><path class="cls-1" d="M2079.56,486.88a6.91,6.91,0,0,1,6.9,6.88,3.42,3.42,0,0,1-2.95,3.63q2.13.31,4.84,3a10.21,10.21,0,0,1,2.72,7.54,11.57,11.57,0,0,1-3.38,8.32q-3.18,3.3-6.37,3.34v0h-8.4V486.88Zm-2.4,4.24v5.18h2.76a2.63,2.63,0,0,0,1.62-.72,2.35,2.35,0,0,0,.74-1.82,2.54,2.54,0,0,0-.77-1.89,2.69,2.69,0,0,0-2-.75Zm0,9.55V515.4h4.16v-.06q1.31-.08,3.26-2.11a7.3,7.3,0,0,0,2.15-5.27,7.31,7.31,0,0,0-7.29-7.29Z" transform="translate(-1299.91 -282.21)"/><path class="cls-1" d="M2096,519.66V486.88h4.24V515.4h11.71v4.26Z" transform="translate(-1299.91 -282.21)"/><path class="cls-1" d="M2134.52,486.88v4.24H2121.1v10h13.42v4.24H2121.1v10h13.42v4.26h-17.66V486.88Z" transform="translate(-1299.91 -282.21)"/><path class="cls-3" d="M1332,393c.74-44.84,38.6-76.45,75.64-76.08,85.25.84,124,113.76,2.41,251.28,0,0,108.48-74.19,108.48-176.21,0-74.75-57.86-102-94.13-108.26-1.28-.22-60.06,0-87.36,48.53-21.1,37.52-11.67,75.67,3.62,97.23A75,75,0,0,1,1332,393Z" transform="translate(-1299.91 -282.21)"/><path class="cls-4" d="M1321.75,393.5c7.85,47,49.31,77.84,87.28,77.84,24.46,0,63.9-15.55,74.25-57.3-7.76,72.48-69.45,142.77-78,150.76-21.08-15.6-105.39-83.56-105.39-172.82,0-87.23,78.79-109.77,110.12-109.77C1349.67,287.34,1312.87,340.42,1321.75,393.5Z" transform="translate(-1299.91 -282.21)"/><path class="cls-5" d="M1409.31,392.65a39.58,39.58,0,0,1-15.72-9.27,20.25,20.25,0,0,1-6-14.92A21.38,21.38,0,0,1,1424,353.4q3.53,3.42,5.93,10.89l-10.72,4.22q-1.94-5.25-3.54-6.84a9.68,9.68,0,0,0-13.52,0,9.15,9.15,0,0,0-2.79,6.76,9.24,9.24,0,0,0,2.79,6.79,30.77,30.77,0,0,0,8.67,5.65,44.88,44.88,0,0,1,18.2,11,27.16,27.16,0,0,1,8.39,20.08,28.44,28.44,0,0,1-48.6,20.14q-6.67-6.67-8.44-18.43l11.47-4.16q1.08,10.1,5.31,14.32a16.72,16.72,0,0,0,23.62-23.67A34.67,34.67,0,0,0,1409.31,392.65Z" transform="translate(-1299.91 -282.21)"/></svg>