<svg width="177" height="60" viewBox="0 0 177 60" fill="none" xmlns="http://www.w3.org/2000/svg">
<g clip-path="url(#clip0)">
<path d="M62.6142 21.5659C60.8308 20.9715 59.423 20.1581 58.3908 19.1259C57.4697 18.1169 56.9737 16.7913 57.0065 15.4255C57.0393 14.0597 57.5982 12.7593 58.5667 11.7957C59.5352 10.8321 60.8383 10.2798 62.2042 10.2539C63.5702 10.228 64.8933 10.7306 65.8976 11.6568C66.4444 12.1672 66.8535 12.8073 67.0872 13.5178L65.8284 14.0192C65.6274 13.488 65.3123 13.0075 64.9052 12.6114C64.5427 12.2495 64.1123 11.9626 63.6389 11.767C63.1654 11.5714 62.658 11.471 62.1457 11.4715C61.1111 11.4725 60.1193 11.8844 59.3884 12.6167C58.6575 13.349 58.2475 14.3416 58.2485 15.3762C58.2495 16.4108 58.6614 17.4026 59.3937 18.1335C60.2575 18.9355 61.2506 19.5859 62.3309 20.0574C64.2335 20.6437 65.967 21.6792 67.3851 23.0765C68.2058 23.9036 68.8198 24.9127 69.1772 26.0217C69.5345 27.1307 69.6251 28.3084 69.4417 29.4591C69.2583 30.6097 68.8059 31.7008 68.1214 32.6438C67.437 33.5867 66.5397 34.3548 65.5025 34.8857C64.4653 35.4166 63.3174 35.6953 62.1522 35.6991C60.9871 35.703 59.8374 35.4318 58.7968 34.9077C57.7561 34.3836 56.8538 33.6214 56.1632 32.683C55.4725 31.7446 55.013 30.6564 54.822 29.507L56.1522 29.0224C56.265 29.9783 56.6048 30.8935 57.1432 31.6914C57.6817 32.4893 58.4031 33.1469 59.2474 33.6093C60.0917 34.0716 61.0344 34.3254 61.9967 34.3493C62.959 34.3732 63.913 34.1666 64.7793 33.7468C65.6455 33.327 66.3988 32.706 66.9762 31.9359C67.5536 31.1657 67.9385 30.2686 68.0986 29.3194C68.2588 28.3702 68.1896 27.3965 67.8969 26.4794C67.6041 25.5624 67.0963 24.7287 66.4158 24.0479C65.3274 22.9746 64.0346 22.1307 62.6142 21.5659V21.5659Z" fill="white"/>
<path d="M88.4705 35.436H87.0627V32.3078C86.7886 32.6765 86.4908 33.0269 86.1711 33.3568C84.9686 34.5611 83.4359 35.3816 81.7669 35.7145C80.0979 36.0475 78.3677 35.8779 76.7951 35.2272C75.2226 34.5765 73.8784 33.474 72.9326 32.0591C71.9869 30.6442 71.4821 28.9806 71.4821 27.2788C71.4821 25.5769 71.9869 23.9133 72.9326 22.4984C73.8784 21.0836 75.2226 19.981 76.7951 19.3303C78.3677 18.6796 80.0979 18.51 81.7669 18.843C83.4359 19.1759 84.9686 19.9964 86.1711 21.2007C86.4906 21.5308 86.7885 21.8812 87.0627 22.2497V20.0741H88.4705V35.436ZM87.0627 28.6782V25.8941C86.7175 24.1856 85.7498 22.6664 84.3475 21.6313C82.9452 20.5962 81.2083 20.1191 79.474 20.2925C77.7397 20.466 76.1317 21.2777 74.9622 22.57C73.7927 23.8624 73.145 25.5431 73.145 27.2861C73.145 29.0291 73.7927 30.7099 74.9622 32.0022C76.1317 33.2945 77.7397 34.1062 79.474 34.2797C81.2083 34.4531 82.9452 33.976 84.3475 32.9409C85.7498 31.9058 86.7175 30.3866 87.0627 28.6782V28.6782Z" fill="white"/>
<path d="M94.3954 21.4819V35.4361H92.9876V21.4819H91.4225V20.0742H92.9876V15.9116C93.0376 14.7835 93.5128 13.716 94.3178 12.924C95.11 12.1567 96.171 11.7297 97.2739 11.7344C97.9032 11.7426 98.5269 11.8538 99.1202 12.0638L98.6817 13.3226C98.2854 13.1448 97.8572 13.0491 97.4229 13.0415C96.6353 13.0599 95.8846 13.3789 95.3248 13.9332C94.7537 14.4773 94.4217 15.2258 94.4017 16.0144V20.0825H97.5299V21.4903L94.3954 21.4819Z" fill="white"/>
<path d="M102.67 32.5574C103.951 33.7508 105.645 34.4013 107.395 34.3723C108.33 34.3869 109.258 34.2097 110.122 33.8518C110.986 33.4938 111.767 32.9626 112.418 32.291C112.595 32.1133 112.762 31.9308 112.919 31.7434L114.404 32.2763C114.126 32.6598 113.817 33.0204 113.481 33.3547C112.309 34.519 110.825 35.3201 109.209 35.6618C107.592 36.0035 105.911 35.8714 104.368 35.2812C102.824 34.691 101.484 33.6679 100.508 32.3347C99.532 31.0015 98.9615 29.4149 98.865 27.7653C98.7686 26.1158 99.1503 24.4735 99.9643 23.0356C100.778 21.5977 101.99 20.4254 103.454 19.6593C104.918 18.8933 106.572 18.5661 108.218 18.7171C109.863 18.868 111.43 19.4908 112.73 20.5104C112.981 20.7188 113.231 20.9482 113.481 21.1986C113.575 21.2923 113.664 21.386 113.748 21.4797L112.684 22.5435L102.67 32.5574ZM111.65 21.5909C110.283 20.5695 108.594 20.0747 106.892 20.1972C105.19 20.3197 103.589 21.0512 102.382 22.2578C101.176 23.4643 100.444 25.0652 100.322 26.7672C100.199 28.4692 100.694 30.1583 101.715 31.5252L111.65 21.5909Z" fill="white"/>
<path d="M122.35 22.5918C120.576 21.9974 119.14 21.1498 118.04 20.049C117.5 19.5159 117.075 18.8779 116.791 18.1743C116.507 17.4707 116.37 16.7163 116.389 15.9578C116.395 14.8022 116.743 13.6742 117.388 12.7154C118.033 11.7566 118.947 11.0097 120.015 10.5686C121.083 10.1275 122.257 10.0117 123.391 10.236C124.525 10.4602 125.567 11.0143 126.386 11.8288C127.033 12.454 127.575 13.4499 128.012 14.8164L125.075 15.9746C124.721 15.0151 124.398 14.3891 124.106 14.0968C123.61 13.613 122.945 13.3422 122.252 13.3422C121.56 13.3422 120.894 13.613 120.399 14.0968C120.151 14.3369 119.955 14.6255 119.823 14.9446C119.691 15.2636 119.626 15.6064 119.633 15.9515C119.627 16.2975 119.691 16.6412 119.823 16.9612C119.955 17.2813 120.151 17.571 120.399 17.8125C121.098 18.459 121.902 18.9825 122.776 19.3608C124.656 19.9484 126.368 20.9787 127.767 22.3652C128.511 23.0743 129.1 23.9296 129.497 24.8774C129.894 25.8253 130.091 26.845 130.075 27.8726C130.08 29.419 129.624 30.9318 128.767 32.219C127.91 33.5061 126.69 34.5093 125.261 35.1012C123.833 35.693 122.26 35.8468 120.744 35.543C119.228 35.2391 117.836 34.4913 116.746 33.3947C115.526 32.175 114.757 30.4903 114.438 28.3405L117.585 27.1991C117.782 29.0454 118.267 30.3546 119.039 31.1267C119.905 31.961 121.064 32.4217 122.267 32.4097C123.469 32.3977 124.619 31.9138 125.468 31.0624C126.317 30.211 126.798 29.0601 126.807 27.8576C126.816 26.655 126.352 25.4971 125.516 24.6332C124.607 23.7483 123.531 23.0542 122.35 22.5918Z" fill="white"/>
<path d="M146.36 20.4644V19.3377H149.61V35.4507H146.356V33.4324C144.792 35.0493 142.977 35.8577 140.911 35.8577C138.55 35.8577 136.286 34.9199 134.617 33.2504C132.947 31.581 132.009 29.3167 132.009 26.9557C132.009 24.5948 132.947 22.3305 134.617 20.6611C136.286 18.9916 138.55 18.0537 140.911 18.0537C142.979 18.0551 144.795 18.8587 146.36 20.4644ZM146.36 28.1453V25.7619C146.152 24.7127 145.627 23.7522 144.858 23.0093C144.078 22.2312 143.086 21.7017 142.005 21.4875C140.925 21.2734 139.806 21.3843 138.788 21.8062C137.771 22.228 136.902 22.942 136.29 23.8578C135.678 24.7737 135.352 25.8502 135.352 26.9515C135.352 28.0528 135.678 29.1294 136.29 30.0452C136.902 30.9611 137.771 31.675 138.788 32.0969C139.806 32.5188 140.925 32.6297 142.005 32.4155C143.086 32.2014 144.078 31.6718 144.858 30.8938C145.627 30.152 146.151 29.1931 146.36 28.1453V28.1453Z" fill="white"/>
<path d="M156.775 10.3896V35.4362H153.521V10.3896H156.775Z" fill="white"/>
<path d="M165.675 31.7917C166.217 32.2715 167.203 32.5114 168.631 32.5114C169.366 32.5232 170.097 32.3851 170.777 32.1056C171.458 31.8261 172.075 31.4109 172.59 30.8854C172.73 30.7455 173.009 30.4224 173.429 29.9161L176.666 31.0742C176.141 31.8358 175.566 32.562 174.946 33.2478C173.729 34.4561 172.189 35.2873 170.511 35.6416C168.833 35.9958 167.089 35.858 165.487 35.2447C163.886 34.6314 162.496 33.5688 161.484 32.1844C160.472 30.8 159.881 29.1528 159.782 27.4408C159.684 25.7288 160.082 24.0247 160.929 22.5334C161.775 21.0422 163.034 19.8271 164.555 19.0342C166.076 18.2414 167.793 17.9045 169.5 18.064C171.208 18.2236 172.833 18.8727 174.18 19.9336C174.44 20.1532 174.695 20.3881 174.946 20.6385C175.049 20.7434 175.346 21.0721 175.837 21.6246L174.211 23.2674L165.675 31.7917ZM171.087 21.7799C170.722 21.5001 169.903 21.3602 168.631 21.3602C167.152 21.3636 165.735 21.9536 164.691 23.0008C163.647 24.0479 163.061 25.4666 163.062 26.9453C163.062 28.2041 163.202 29.023 163.482 29.4021L171.087 21.7799Z" fill="white"/>
<path d="M55.6465 49.8181V42.9407H56.5361V48.9243H58.995V49.8181H55.6465Z" fill="white"/>
<path d="M65.6123 43.8827C66.1875 44.4587 66.5452 45.2162 66.6244 46.0263C66.7037 46.8364 66.4996 47.6489 66.047 48.3254C65.5943 49.0019 64.9212 49.5006 64.1421 49.7364C63.3631 49.9722 62.5263 49.9307 61.7745 49.6188C61.0227 49.3069 60.4022 48.744 60.0189 48.0259C59.6355 47.3079 59.513 46.4792 59.6722 45.6809C59.8313 44.8827 60.2623 44.1643 60.8917 43.6482C61.5212 43.1321 62.3101 42.8502 63.124 42.8505C63.5873 42.8435 64.0471 42.9315 64.475 43.109C64.903 43.2866 65.29 43.5499 65.6123 43.8827V43.8827ZM63.124 43.7505C62.5184 43.7511 61.9317 43.9615 61.4638 44.346C60.9959 44.7305 60.6758 45.2653 60.5579 45.8594C60.4401 46.4534 60.5318 47.0699 60.8174 47.604C61.1031 48.138 61.5651 48.5564 62.1246 48.7881C62.6842 49.0198 63.3067 49.0503 63.8863 48.8745C64.4658 48.6987 64.9665 48.3275 65.3031 47.824C65.6396 47.3205 65.7912 46.7159 65.7321 46.1132C65.6729 45.5105 65.4067 44.9469 64.9787 44.5184C64.7389 44.2697 64.4505 44.073 64.1315 43.9405C63.8124 43.808 63.4695 43.7427 63.124 43.7484V43.7505Z" fill="white"/>
<path d="M73.1506 48.1795L73.8178 48.7774C73.0037 49.5201 72.1428 49.8908 71.2351 49.8894C70.3033 49.8894 69.4097 49.5193 68.7509 48.8604C68.092 48.2016 67.7219 47.308 67.7219 46.3762C67.7219 45.4445 68.092 44.5509 68.7509 43.892C69.4097 43.2332 70.3033 42.863 71.2351 42.863C72.1428 42.863 73.0037 43.2337 73.8178 43.975L73.1506 44.5813C72.6371 44.0786 71.9533 43.7873 71.2351 43.7652C70.5415 43.7652 69.8763 44.0407 69.3858 44.5312C68.8954 45.0216 68.6198 45.6868 68.6198 46.3804C68.6198 47.074 68.8954 47.7392 69.3858 48.2297C69.8763 48.7201 70.5415 48.9956 71.2351 48.9956C71.9533 48.9735 72.6371 48.6822 73.1506 48.1795V48.1795Z" fill="white"/>
<path d="M77.2669 42.9407L79.7678 49.816H78.8216L77.9362 47.3843H76.1151L75.2339 49.816H74.2898L76.7907 42.9407H77.2669ZM77.6152 46.4948L77.0257 44.8835L76.4403 46.4948H77.6152Z" fill="white"/>
<path d="M80.628 49.8181V42.9407H81.5176V48.9243H83.9765V49.8181H80.628Z" fill="white"/>
<path d="M85.9822 42.9407V49.816H85.0927V42.9407H85.9822Z" fill="white"/>
<path d="M90.8182 43.8302H87.56V42.9407H92.3561L88.8964 48.9222H92.1631V49.816H87.3628L90.8182 43.8302Z" fill="white"/>
<path d="M96.2018 42.9407L98.7027 49.816H97.7565L96.8711 47.3843H95.0605L94.1793 49.816H93.2289L95.7298 42.9407H96.2018ZM96.5501 46.4948L95.9606 44.8835L95.3752 46.4948H96.5501Z" fill="white"/>
<path d="M99.5629 42.9407H100.375L103.211 47.848V42.9407H104.105V49.816H103.327L100.452 44.8541V49.8223H99.5629V42.9407Z" fill="white"/>
<path d="M106.048 42.9407C107.167 42.9407 108.038 43.2575 108.66 43.8911C109.318 44.552 109.687 45.4467 109.687 46.3794C109.687 47.312 109.318 48.2067 108.66 48.8677C108.035 49.4957 107.164 49.8125 106.048 49.8181H105.395V42.9407H106.048ZM106.285 43.847V48.9138C106.607 48.9251 106.927 48.8703 107.227 48.7526C107.526 48.635 107.798 48.457 108.026 48.2299C108.517 47.7379 108.792 47.0717 108.792 46.3773C108.792 45.6828 108.517 45.0166 108.026 44.5247C107.798 44.299 107.525 44.1224 107.226 44.0059C106.926 43.8893 106.606 43.8353 106.285 43.847V43.847Z" fill="white"/>
<path d="M116.67 43.8827C117.245 44.4584 117.602 45.2155 117.681 46.0251C117.76 46.8346 117.556 47.6466 117.104 48.3225C116.651 48.9985 115.979 49.4968 115.2 49.7324C114.422 49.968 113.586 49.9264 112.834 49.6148C112.083 49.3031 111.463 48.7406 111.08 48.0231C110.697 47.3055 110.574 46.4774 110.733 45.6797C110.892 44.882 111.323 44.164 111.952 43.6481C112.58 43.1323 113.369 42.8504 114.182 42.8505C114.645 42.8434 115.105 42.9313 115.533 43.1089C115.961 43.2864 116.348 43.5498 116.67 43.8827V43.8827ZM114.182 43.7506C113.576 43.7511 112.99 43.9615 112.522 44.346C112.054 44.7305 111.734 45.2654 111.616 45.8594C111.498 46.4534 111.59 47.07 111.876 47.604C112.161 48.138 112.623 48.5565 113.183 48.7881C113.742 49.0198 114.365 49.0503 114.944 48.8745C115.524 48.6987 116.025 48.3275 116.361 47.824C116.698 47.3205 116.849 46.7159 116.79 46.1132C116.731 45.5105 116.465 44.9469 116.037 44.5184C115.796 44.2692 115.507 44.0722 115.188 43.9397C114.868 43.8072 114.524 43.7421 114.178 43.7485L114.182 43.7506Z" fill="white"/>
<path d="M123.888 43.8302V49.816H122.994V43.8302H121.391V42.9407H125.482V43.8302H123.888Z" fill="white"/>
<path d="M130.131 42.9407H131.025V47.7914C130.959 48.3215 130.719 48.8146 130.341 49.1928C130.014 49.5183 129.599 49.7397 129.146 49.8293C128.694 49.9189 128.225 49.8726 127.799 49.6963C127.373 49.52 127.008 49.2216 126.751 48.8385C126.494 48.4555 126.356 48.005 126.355 47.5438V42.9491H127.249V47.5438C127.249 47.9269 127.401 48.2943 127.672 48.5652C127.943 48.8361 128.31 48.9883 128.693 48.9883C129.076 48.9883 129.444 48.8361 129.715 48.5652C129.986 48.2943 130.138 47.9269 130.138 47.5438L130.131 42.9407Z" fill="white"/>
<path d="M136.333 42.9407V49.816H135.444V42.9407H136.333Z" fill="white"/>
<path d="M137.712 42.9407H138.524L141.36 47.848V42.9407H142.254V49.816H141.476L138.601 44.8541V49.8223H137.712V42.9407Z" fill="white"/>
<path d="M144.574 42.9407L146.805 46.7948L149.026 42.9407H149.838V49.816H148.949V44.8541L146.805 48.5676L144.644 44.8541V49.8223H143.754V42.9407H144.574Z" fill="white"/>
<path d="M155.113 42.9407H156.007V47.7914C155.941 48.3215 155.7 48.8146 155.323 49.1928C154.996 49.5183 154.58 49.7397 154.128 49.8293C153.675 49.9189 153.206 49.8726 152.78 49.6963C152.354 49.52 151.99 49.2216 151.733 48.8385C151.476 48.4555 151.338 48.005 151.336 47.5438V42.9491H152.23V47.5438C152.23 47.9269 152.382 48.2943 152.653 48.5652C152.924 48.8361 153.292 48.9883 153.675 48.9883C154.058 48.9883 154.425 48.8361 154.696 48.5652C154.967 48.2943 155.119 47.9269 155.119 47.5438L155.113 42.9407Z" fill="white"/>
<path d="M161 42.9407V43.8302H158.185V45.9283H161V46.8179H158.185V48.9159H161V49.8097H157.295V42.9407H161Z" fill="white"/>
<path d="M163.574 42.9407C163.957 42.9412 164.325 43.0933 164.596 43.3638C164.867 43.6343 165.02 44.0011 165.022 44.3841C165.035 44.5659 164.978 44.7458 164.863 44.8873C164.748 45.0287 164.584 45.1211 164.403 45.1457C164.701 45.1891 165.04 45.3989 165.419 45.7751C165.615 45.9867 165.768 46.2359 165.866 46.5078C165.964 46.7796 166.006 47.0685 165.989 47.3571C165.993 47.6806 165.933 48.0017 165.811 48.3015C165.689 48.6012 165.509 48.8736 165.28 49.1026C164.835 49.5642 164.39 49.7978 163.944 49.8034H162.181V42.9407H163.574ZM163.071 43.8302V44.917H163.65C163.777 44.9075 163.897 44.8541 163.99 44.766C164.042 44.7173 164.082 44.658 164.109 44.5921C164.136 44.5261 164.148 44.4552 164.145 44.3841C164.147 44.3105 164.134 44.2372 164.106 44.1689C164.078 44.1007 164.036 44.0389 163.983 43.9876C163.928 43.9341 163.862 43.8925 163.79 43.8655C163.718 43.8384 163.641 43.8264 163.564 43.8302H163.071ZM163.071 45.8339V48.9243H163.944V48.9117C164.127 48.9005 164.355 48.753 164.628 48.469C164.773 48.3243 164.888 48.1519 164.965 47.962C165.043 47.772 165.081 47.5685 165.079 47.3634C165.078 46.9581 164.916 46.5697 164.629 46.2831C164.343 45.9965 163.954 45.835 163.549 45.8339H163.071Z" fill="white"/>
<path d="M167.024 49.8181V42.9407H167.913V48.9243H170.37V49.8181H167.024Z" fill="white"/>
<path d="M175.105 42.9407V43.8302H172.29V45.9283H175.105V46.8179H172.29V48.9159H175.105V49.8097H171.4V42.9407H175.105Z" fill="white"/>
<path d="M6.73264 23.2442C6.8879 13.8366 14.8311 7.20466 22.6023 7.28229C40.4881 7.45852 48.6181 31.1497 23.1079 60.0021C23.1079 60.0021 45.8675 44.4366 45.8675 23.0323C45.8675 7.34942 33.7282 1.63224 26.1186 0.318864C25.8501 0.272707 13.5177 0.318864 7.79007 10.5007C3.36318 18.3726 5.34164 26.3766 8.54956 30.9C7.30536 28.5431 6.68017 25.9089 6.73264 23.2442V23.2442Z" fill="white"/>
<path d="M4.58047 23.3492C6.22744 33.21 14.926 39.6804 22.8922 39.6804C28.0241 39.6804 36.2988 36.4179 38.4703 27.6586C36.8422 42.8652 23.8993 57.6124 22.1055 59.2888C17.6828 56.0158 -0.00585938 41.7575 -0.00585938 23.0303C-0.00585938 4.72901 16.5247 0 23.0979 0C10.4382 1.0763 2.7174 12.2127 4.58047 23.3492Z" fill="white"/>
<path d="M22.9527 23.1708C21.7168 22.7883 20.5874 22.1223 19.6545 21.2259C19.2421 20.8178 18.9176 20.3294 18.7011 19.7911C18.4846 19.2527 18.3806 18.6757 18.3957 18.0956C18.4017 17.2133 18.6678 16.3523 19.1607 15.6204C19.6536 14.8885 20.3514 14.3182 21.1668 13.981C21.9821 13.6437 22.8789 13.5544 23.7448 13.7243C24.6106 13.8941 25.4072 14.3156 26.0347 14.936C26.5284 15.4143 26.9432 16.1759 27.2789 17.2207L25.0297 18.1061C24.7584 17.3718 24.5108 16.8934 24.287 16.671C23.9077 16.3009 23.3987 16.0938 22.8688 16.0938C22.3388 16.0938 21.8298 16.3009 21.4505 16.671C21.2606 16.8545 21.1107 17.0751 21.0099 17.3192C20.9092 17.5632 20.8599 17.8254 20.8651 18.0893C20.8602 18.3542 20.9096 18.6172 21.0102 18.8622C21.1109 19.1072 21.2608 19.329 21.4505 19.5139C21.9855 20.0089 22.6006 20.4097 23.2695 20.6993C24.7088 21.1516 26.0184 21.9431 27.0879 23.0071C27.6559 23.5501 28.1055 24.2046 28.4085 24.9296C28.7114 25.6546 28.8611 26.4344 28.8482 27.22C28.8515 28.4029 28.5032 29.56 27.8475 30.5444C27.1919 31.5289 26.2584 32.2963 25.1657 32.7491C24.073 33.2019 22.8703 33.3198 21.7105 33.0877C20.5506 32.8555 19.486 32.284 18.6517 31.4455C17.7188 30.5126 17.1285 29.2237 16.8809 27.5788L19.2874 26.706C19.4384 28.1187 19.8098 29.1202 20.4014 29.7104C21.0616 30.3596 21.9517 30.7215 22.8776 30.7171C23.8035 30.7127 24.6901 30.3424 25.3441 29.687C25.9981 29.0316 26.3665 28.1442 26.3689 27.2183C26.3713 26.2925 26.0076 25.4031 25.357 24.7443C24.6682 24.0652 23.8508 23.5302 22.9527 23.1708V23.1708Z" fill="white"/>
</g>
<defs>
<clipPath id="clip0">
<rect width="176.656" height="60" fill="white"/>
</clipPath>
</defs>
</svg>
