<svg width="207" height="70" viewBox="0 0 207 70" fill="none" xmlns="http://www.w3.org/2000/svg">
<g clip-path="url(#clip0)">
<path d="M73.0499 25.1601C70.9693 24.4666 69.3269 23.5177 68.1226 22.3134C67.0479 21.1364 66.4693 19.5897 66.5076 17.9963C66.5458 16.4029 67.1979 14.8858 68.3278 13.7616C69.4577 12.6374 70.978 11.993 72.5716 11.9628C74.1652 11.9326 75.7089 12.519 76.8805 13.5995C77.5184 14.195 77.9958 14.9417 78.2684 15.7707L76.7998 16.3557C76.5653 15.736 76.1977 15.1753 75.7228 14.7133C75.2998 14.2911 74.7977 13.9563 74.2453 13.7281C73.6929 13.4999 73.101 13.3828 72.5034 13.3833C71.2963 13.3845 70.1392 13.8651 69.2865 14.7194C68.4338 15.5737 67.9554 16.7318 67.9566 17.9388C67.9577 19.1458 68.4383 20.303 69.2926 21.1557C70.3005 22.0913 71.459 22.8502 72.7194 23.4002C74.939 24.0843 76.9615 25.2924 78.616 26.9225C79.5735 27.8875 80.2898 29.0647 80.7067 30.3586C81.1236 31.6524 81.2293 33.0264 81.0153 34.3688C80.8013 35.7112 80.2736 36.9842 79.475 38.0843C78.6764 39.1844 77.6296 40.0806 76.4195 40.7C75.2095 41.3193 73.8703 41.6445 72.511 41.6489C71.1516 41.6534 69.8103 41.337 68.5962 40.7256C67.3821 40.1142 66.3294 39.2249 65.5237 38.1301C64.7179 37.0353 64.1818 35.7658 63.959 34.4248L65.5109 33.8594C65.6425 34.9747 66.0389 36.0423 66.6671 36.9732C67.2953 37.9041 68.137 38.6713 69.122 39.2107C70.107 39.7502 71.2067 40.0462 72.3294 40.0741C73.4521 40.102 74.5652 39.861 75.5758 39.3712C76.5864 38.8814 77.4652 38.157 78.1389 37.2584C78.8126 36.3599 79.2615 35.3132 79.4484 34.2059C79.6352 33.0985 79.5545 31.9625 79.213 30.8926C78.8715 29.8228 78.279 28.8501 77.4851 28.0558C76.2152 26.8037 74.7071 25.819 73.0499 25.1601Z" fill="#2A6DAF"/>
<path d="M103.216 41.342H101.573V37.6925C101.253 38.1226 100.906 38.5314 100.533 38.9163C99.13 40.3213 97.3418 41.2786 95.3947 41.667C93.4476 42.0555 91.429 41.8576 89.5943 41.0984C87.7597 40.3393 86.1915 39.053 85.0881 37.4023C83.9847 35.7517 83.3957 33.8108 83.3957 31.8253C83.3957 29.8398 83.9847 27.8989 85.0881 26.2482C86.1915 24.5976 87.7597 23.3113 89.5943 22.5521C91.429 21.793 93.4476 21.5951 95.3947 21.9835C97.3418 22.372 99.13 23.3292 100.533 24.7342C100.906 25.1193 101.253 25.5281 101.573 25.9581V23.4198H103.216V41.342ZM101.573 33.4579V30.2098C101.17 28.2166 100.041 26.4442 98.4054 25.2366C96.7694 24.029 94.743 23.4723 92.7197 23.6747C90.6963 23.8771 88.8203 24.824 87.4559 26.3318C86.0914 27.8395 85.3359 29.8004 85.3359 31.8339C85.3359 33.8673 86.0914 35.8282 87.4559 37.336C88.8203 38.8437 90.6963 39.7906 92.7197 39.993C94.743 40.1954 96.7694 39.6387 98.4054 38.4311C100.041 37.2235 101.17 35.4511 101.573 33.4579Z" fill="#2A6DAF"/>
<path d="M110.128 25.0623V41.3421H108.486V25.0623H106.66V23.4199H108.486V18.5636C108.544 17.2474 109.098 16.0021 110.037 15.078C110.962 14.1828 112.2 13.6847 113.486 13.6902C114.22 13.6997 114.948 13.8295 115.64 14.0745L115.129 15.5431C114.666 15.3356 114.167 15.224 113.66 15.2151C112.741 15.2365 111.865 15.6087 111.212 16.2554C110.546 16.8902 110.159 17.7635 110.135 18.6835V23.4297H113.785V25.0721L110.128 25.0623Z" fill="#2A6DAF"/>
<path d="M119.782 37.9838C121.276 39.3761 123.252 40.135 125.294 40.1011C126.385 40.1181 127.468 39.9115 128.475 39.4939C129.483 39.0763 130.395 38.4565 131.154 37.6729C131.361 37.4657 131.556 37.2528 131.739 37.0341L133.472 37.6558C133.147 38.1032 132.787 38.5239 132.395 38.9139C131.027 40.2723 129.296 41.2069 127.41 41.6056C125.524 42.0043 123.563 41.8501 121.762 41.1615C119.962 40.473 118.398 39.2793 117.259 37.7239C116.121 36.1685 115.455 34.3175 115.343 32.393C115.23 30.4686 115.675 28.5525 116.625 26.875C117.575 25.1975 118.989 23.8297 120.697 22.936C122.405 22.0423 124.334 21.6606 126.254 21.8367C128.174 22.0128 130.002 22.7393 131.519 23.929C131.811 24.1721 132.103 24.4397 132.395 24.7318C132.504 24.8412 132.608 24.9505 132.706 25.0598L131.465 26.3008L119.782 37.9838ZM130.258 25.1895C128.663 23.9979 126.693 23.4206 124.707 23.5635C122.721 23.7064 120.854 24.5598 119.446 25.9675C118.038 27.3752 117.185 29.2429 117.042 31.2285C116.899 33.2142 117.476 35.1848 118.668 36.7795L130.258 25.1895Z" fill="#2A6DAF"/>
<path d="M142.741 26.3571C140.672 25.6636 138.996 24.6747 137.714 23.3905C137.084 22.7686 136.588 22.0243 136.257 21.2034C135.925 20.3825 135.766 19.5024 135.787 18.6174C135.795 17.2693 136.2 15.9533 136.952 14.8346C137.705 13.716 138.771 12.8447 140.017 12.33C141.263 11.8154 142.634 11.6804 143.956 11.942C145.279 12.2035 146.495 12.8501 147.451 13.8003C148.205 14.5297 148.837 15.6916 149.348 17.2859L145.921 18.637C145.508 17.5176 145.131 16.7874 144.79 16.4463C144.212 15.8819 143.436 15.566 142.628 15.566C141.819 15.566 141.043 15.8819 140.465 16.4463C140.176 16.7265 139.947 17.0631 139.793 17.4354C139.64 17.8076 139.564 18.2074 139.572 18.6101C139.564 19.0138 139.64 19.4147 139.794 19.7881C139.947 20.1615 140.176 20.4995 140.465 20.7812C141.281 21.5355 142.219 22.1462 143.238 22.5876C145.432 23.2732 147.429 24.4752 149.061 26.0928C149.929 26.92 150.617 27.9179 151.08 29.0237C151.543 30.1295 151.773 31.3192 151.754 32.5181C151.759 34.3222 151.229 36.0872 150.229 37.5888C149.229 39.0904 147.805 40.2609 146.138 40.9514C144.471 41.6419 142.637 41.8213 140.868 41.4668C139.099 41.1123 137.476 40.2399 136.204 38.9605C134.781 37.5375 133.883 35.572 133.511 33.0639L137.183 31.7323C137.413 33.8863 137.978 35.4137 138.879 36.3145C139.889 37.2878 141.242 37.8253 142.645 37.8113C144.047 37.7973 145.389 37.2328 146.379 36.2395C147.37 35.2462 147.931 33.9034 147.942 32.5005C147.952 31.0976 147.411 29.7467 146.435 28.7388C145.375 27.7064 144.119 26.8966 142.741 26.3571Z" fill="#2A6DAF"/>
<path d="M170.753 23.8751V22.5607H174.545V41.3592H170.748V39.0045C168.924 40.8909 166.807 41.8341 164.396 41.8341C161.642 41.8341 159 40.7399 157.053 38.7922C155.105 36.8445 154.011 34.2028 154.011 31.4484C154.011 28.6939 155.105 26.0523 157.053 24.1046C159 22.1569 161.642 21.0627 164.396 21.0627C166.808 21.0643 168.927 22.0018 170.753 23.8751ZM170.753 32.8362V30.0556C170.51 28.8315 169.899 27.7109 169.001 26.8442C168.091 25.9365 166.933 25.3187 165.673 25.0688C164.413 24.819 163.107 24.9483 161.92 25.4405C160.733 25.9327 159.719 26.7657 159.005 27.8342C158.291 28.9026 157.911 30.1586 157.911 31.4435C157.911 32.7283 158.291 33.9843 159.005 35.0528C159.719 36.1212 160.733 36.9542 161.92 37.4464C163.107 37.9386 164.413 38.068 165.673 37.8181C166.933 37.5683 168.091 36.9505 169.001 36.0427C169.898 35.1774 170.509 34.0586 170.753 32.8362Z" fill="#2A6DAF"/>
<path d="M182.904 12.1211V41.342H179.107V12.1211H182.904Z" fill="#2A6DAF"/>
<path d="M193.287 37.0903C193.92 37.6501 195.07 37.9299 196.736 37.9299C197.594 37.9437 198.446 37.7826 199.24 37.4565C200.034 37.1304 200.754 36.646 201.355 36.0329C201.518 35.8698 201.844 35.4928 202.334 34.9021L206.111 36.2532C205.498 37.1418 204.828 37.9889 204.103 38.7891C202.684 40.1988 200.887 41.1685 198.93 41.5818C196.972 41.9951 194.937 41.8343 193.069 41.1188C191.2 40.4033 189.578 39.1635 188.398 37.5484C187.217 35.9333 186.528 34.0116 186.413 32.0143C186.298 30.0169 186.762 28.0288 187.75 26.289C188.738 24.5492 190.207 23.1316 191.981 22.2066C193.755 21.2816 195.758 20.8885 197.75 21.0747C199.742 21.2608 201.638 22.0182 203.21 23.2558C203.514 23.512 203.811 23.7862 204.103 24.0782C204.224 24.2006 204.571 24.5841 205.144 25.2287L203.247 27.1452L193.287 37.0903ZM199.602 25.4098C199.176 25.0834 198.221 24.9203 196.736 24.9203C195.011 24.9242 193.358 25.6125 192.14 26.8342C190.922 28.0559 190.238 29.711 190.24 31.4361C190.24 32.9047 190.403 33.8602 190.729 34.3024L199.602 25.4098Z" fill="#2A6DAF"/>
<path d="M64.921 58.1212V50.0976H65.9588V57.0785H68.8275V58.1212H64.921Z" fill="#2A6DAF"/>
<path d="M76.5477 51.1966C77.2187 51.8685 77.636 52.7524 77.7285 53.6975C77.8209 54.6426 77.5828 55.5905 77.0548 56.3798C76.5267 57.169 75.7413 57.7508 74.8325 58.0259C73.9236 58.3011 72.9474 58.2525 72.0703 57.8887C71.1931 57.5248 70.4692 56.8681 70.022 56.0304C69.5748 55.1926 69.4318 54.2258 69.6175 53.2945C69.8032 52.3632 70.306 51.5251 71.0404 50.923C71.7747 50.3209 72.6951 49.992 73.6447 49.9923C74.1852 49.9842 74.7216 50.0869 75.2208 50.294C75.7201 50.5011 76.1717 50.8083 76.5477 51.1966ZM73.6447 51.0424C72.9381 51.043 72.2536 51.2885 71.7078 51.7371C71.1619 52.1857 70.7884 52.8097 70.6509 53.5027C70.5134 54.1958 70.6204 54.915 70.9537 55.538C71.287 56.1611 71.8259 56.6493 72.4787 56.9196C73.1315 57.1898 73.8579 57.2255 74.534 57.0204C75.2101 56.8153 75.7942 56.3822 76.1869 55.7948C76.5795 55.2074 76.7564 54.502 76.6874 53.7988C76.6184 53.0956 76.3078 52.4381 75.8085 51.9383C75.5287 51.6481 75.1923 51.4186 74.82 51.264C74.4478 51.1095 74.0477 51.0332 73.6447 51.04V51.0424Z" fill="#2A6DAF"/>
<path d="M85.3423 56.2096L86.1207 56.9072C85.171 57.7736 84.1666 58.2061 83.1075 58.2044C82.0205 58.2044 80.978 57.7726 80.2093 57.004C79.4407 56.2353 79.0088 55.1928 79.0088 54.1057C79.0088 53.0187 79.4407 51.9762 80.2093 51.2075C80.978 50.4388 82.0205 50.007 83.1075 50.007C84.1666 50.007 85.171 50.4394 86.1207 51.3043L85.3423 52.0117C84.7432 51.4252 83.9456 51.0853 83.1075 51.0595C82.2983 51.0595 81.5223 51.381 80.9501 51.9532C80.3779 52.5254 80.0565 53.3014 80.0565 54.1106C80.0565 54.9198 80.3779 55.6959 80.9501 56.2681C81.5223 56.8403 82.2983 57.1617 83.1075 57.1617C83.9456 57.136 84.7432 56.7961 85.3423 56.2096Z" fill="#2A6DAF"/>
<path d="M90.1448 50.0976L93.0625 58.1188H91.9585L90.9256 55.2819H88.801L87.7729 58.1188H86.6714L89.5891 50.0976H90.1448ZM90.5511 54.244L89.8633 52.3642L89.1804 54.244H90.5511Z" fill="#2A6DAF"/>
<path d="M94.066 58.1212V50.0976H95.1039V57.0785H97.9726V58.1212H94.066Z" fill="#2A6DAF"/>
<path d="M100.313 50.0976V58.1188H99.2748V50.0976H100.313Z" fill="#2A6DAF"/>
<path d="M105.955 51.1354H102.153V50.0976H107.749L103.713 57.0761H107.524V58.1188H101.923L105.955 51.1354Z" fill="#2A6DAF"/>
<path d="M112.235 50.0976L115.153 58.1188H114.049L113.016 55.2819H110.904L109.876 58.1188H108.767L111.685 50.0976H112.235ZM112.642 54.244L111.954 52.3642L111.271 54.244H112.642Z" fill="#2A6DAF"/>
<path d="M116.157 50.0976H117.104L120.413 55.8228V50.0976H121.456V58.1188H120.548L117.195 52.3299V58.1261H116.157V50.0976Z" fill="#2A6DAF"/>
<path d="M123.723 50.0976C125.028 50.0976 126.044 50.4672 126.77 51.2064C127.538 51.9775 127.969 53.0213 127.969 54.1094C127.969 55.1975 127.538 56.2413 126.77 57.0124C126.041 57.7451 125.025 58.1147 123.723 58.1212H122.961V50.0976H123.723ZM123.999 51.155V57.0662C124.374 57.0795 124.748 57.0155 125.098 56.8782C125.447 56.7409 125.765 56.5333 126.031 56.2683C126.603 55.6944 126.924 54.9172 126.924 54.107C126.924 53.2967 126.603 52.5196 126.031 51.9456C125.764 51.6823 125.446 51.4763 125.097 51.3403C124.747 51.2043 124.374 51.1413 123.999 51.155Z" fill="#2A6DAF"/>
<path d="M136.115 51.1966C136.786 51.8682 137.203 52.7515 137.295 53.696C137.387 54.6404 137.149 55.5877 136.621 56.3763C136.093 57.165 135.309 57.7463 134.4 58.0212C133.492 58.296 132.516 58.2476 131.64 57.8839C130.763 57.5203 130.04 56.864 129.593 56.0269C129.146 55.1898 129.003 54.2237 129.189 53.293C129.374 52.3623 129.876 51.5247 130.61 50.9229C131.344 50.321 132.263 49.9922 133.212 49.9923C133.753 49.984 134.289 50.0866 134.789 50.2937C135.288 50.5009 135.74 50.8081 136.115 51.1966ZM133.212 51.0424C132.506 51.043 131.821 51.2885 131.276 51.7371C130.73 52.1857 130.356 52.8096 130.219 53.5027C130.081 54.1957 130.188 54.915 130.521 55.538C130.855 56.161 131.394 56.6492 132.046 56.9195C132.699 57.1898 133.426 57.2254 134.102 57.0203C134.778 56.8152 135.362 56.3821 135.755 55.7947C136.147 55.2073 136.324 54.502 136.255 53.7988C136.186 53.0956 135.876 52.4381 135.376 51.9382C135.096 51.6474 134.759 51.4176 134.386 51.263C134.012 51.1084 133.611 51.0325 133.208 51.0399L133.212 51.0424Z" fill="#2A6DAF"/>
<path d="M144.536 51.1354V58.1188H143.493V51.1354H141.623V50.0976H146.396V51.1354H144.536Z" fill="#2A6DAF"/>
<path d="M151.82 50.0976H152.863V55.7567C152.786 56.3753 152.505 56.9506 152.065 57.3918C151.684 57.7715 151.198 58.0298 150.671 58.1343C150.143 58.2389 149.596 58.1849 149.099 57.9792C148.601 57.7735 148.176 57.4253 147.876 56.9784C147.577 56.5315 147.416 56.006 147.414 55.4679V50.1074H148.457V55.4679C148.457 55.9149 148.634 56.3435 148.95 56.6595C149.267 56.9756 149.695 57.1532 150.142 57.1532C150.589 57.1532 151.018 56.9756 151.334 56.6595C151.65 56.3435 151.827 55.9149 151.827 55.4679L151.82 50.0976Z" fill="#2A6DAF"/>
<path d="M159.056 50.0976V58.1188H158.018V50.0976H159.056Z" fill="#2A6DAF"/>
<path d="M160.664 50.0976H161.611L164.92 55.8228V50.0976H165.963V58.1188H165.055L161.702 52.3299V58.1261H160.664V50.0976Z" fill="#2A6DAF"/>
<path d="M168.67 50.0976L171.272 54.5941L173.864 50.0976H174.812V58.1188H173.774V52.3299L171.272 56.6624L168.751 52.3299V58.1261H167.713V50.0976H168.67Z" fill="#2A6DAF"/>
<path d="M180.965 50.0976H182.008V55.7567C181.931 56.3753 181.65 56.9506 181.21 57.3918C180.829 57.7715 180.343 58.0298 179.816 58.1343C179.288 58.2389 178.741 58.1849 178.244 57.9792C177.746 57.7735 177.321 57.4253 177.021 56.9784C176.722 56.5315 176.561 56.006 176.559 55.4679V50.1074H177.602V55.4679C177.602 55.9149 177.779 56.3435 178.096 56.6595C178.412 56.9756 178.84 57.1532 179.287 57.1532C179.734 57.1532 180.163 56.9756 180.479 56.6595C180.795 56.3435 180.972 55.9149 180.972 55.4679L180.965 50.0976Z" fill="#2A6DAF"/>
<path d="M187.833 50.0976V51.1354H184.549V53.5832H187.833V54.621H184.549V57.0687H187.833V58.1114H183.511V50.0976H187.833Z" fill="#2A6DAF"/>
<path d="M190.837 50.0976C191.284 50.0982 191.712 50.2757 192.029 50.5912C192.345 50.9068 192.524 51.3347 192.526 51.7816C192.541 51.9937 192.474 52.2036 192.34 52.3686C192.206 52.5337 192.014 52.6415 191.804 52.6702C192.151 52.7207 192.546 52.9655 192.988 53.4045C193.218 53.6513 193.396 53.942 193.51 54.2592C193.624 54.5764 193.673 54.9134 193.654 55.25C193.659 55.6275 193.588 56.0021 193.446 56.3519C193.304 56.7016 193.093 57.0194 192.827 57.2866C192.308 57.8251 191.788 58.0976 191.268 58.1041H189.211V50.0976H190.837ZM190.249 51.1354V52.4033H190.925C191.073 52.3923 191.214 52.33 191.321 52.2271C191.382 52.1703 191.43 52.1011 191.461 52.0242C191.492 51.9473 191.506 51.8646 191.503 51.7816C191.505 51.6957 191.489 51.6102 191.457 51.5306C191.424 51.4509 191.376 51.3789 191.314 51.319C191.249 51.2566 191.172 51.2081 191.088 51.1765C191.004 51.145 190.914 51.131 190.825 51.1354H190.249ZM190.249 53.473V57.0785H191.268V57.0638C191.481 57.0508 191.747 56.8786 192.066 56.5473C192.235 56.3785 192.369 56.1774 192.46 55.9558C192.55 55.7342 192.595 55.4967 192.592 55.2574C192.59 54.7845 192.402 54.3314 192.068 53.9971C191.733 53.6627 191.28 53.4743 190.807 53.473H190.249Z" fill="#2A6DAF"/>
<path d="M194.861 58.1212V50.0976H195.899V57.0785H198.765V58.1212H194.861Z" fill="#2A6DAF"/>
<path d="M204.289 50.0976V51.1354H201.005V53.5832H204.289V54.621H201.005V57.0687H204.289V58.1114H199.967V50.0976H204.289Z" fill="#2A6DAF"/>
<path d="M7.85475 27.1184C8.03588 16.1428 17.303 8.40552 26.3693 8.49608C47.2362 8.70169 56.7211 36.3414 26.9592 70.0025C26.9592 70.0025 53.5121 51.8428 53.5121 26.8711C53.5121 8.57441 39.3496 1.90436 30.4717 0.372089C30.1584 0.318239 15.7707 0.372089 9.08841 12.2509C3.92372 21.4347 6.23192 30.7728 9.97449 36.0501C8.52292 33.3004 7.79353 30.2271 7.85475 27.1184Z" fill="#2A6DAF"/>
<path d="M5.34654 27.2407C7.268 38.745 17.4163 46.2938 26.7103 46.2938C32.6974 46.2938 42.3512 42.4876 44.8846 32.2683C42.9852 50.0094 27.8852 67.2145 25.7924 69.1702C20.6326 65.3518 -0.00418091 48.717 -0.00418091 26.8687C-0.00418091 5.51717 19.2814 0 26.9501 0C12.1806 1.25568 3.17296 14.2482 5.34654 27.2407Z" fill="#2A6DAF"/>
<path d="M26.7781 27.0326C25.3363 26.5863 24.0186 25.8093 22.9303 24.7636C22.4491 24.2874 22.0705 23.7177 21.8179 23.0896C21.5653 22.4615 21.4441 21.7883 21.4616 21.1116C21.4686 20.0822 21.7791 19.0777 22.3541 18.2238C22.9292 17.3699 23.7433 16.7046 24.6945 16.3112C25.6458 15.9177 26.692 15.8135 27.7022 16.0117C28.7124 16.2099 29.6417 16.7016 30.3738 17.4253C30.9498 17.9834 31.4337 18.8719 31.8253 20.0909L29.2013 21.1238C28.8848 20.2671 28.596 19.709 28.3349 19.4496C27.8923 19.0178 27.2985 18.7761 26.6802 18.7761C26.0619 18.7761 25.4681 19.0178 25.0255 19.4496C24.8041 19.6636 24.6291 19.921 24.5116 20.2057C24.3941 20.4904 24.3366 20.7963 24.3426 21.1042C24.3369 21.4132 24.3945 21.7201 24.5119 22.006C24.6294 22.2918 24.8042 22.5506 25.0255 22.7663C25.6498 23.3437 26.3673 23.8113 27.1477 24.1492C28.8269 24.6769 30.3548 25.6003 31.6026 26.8417C32.2653 27.4751 32.7898 28.2387 33.1432 29.0845C33.4966 29.9304 33.6713 30.8402 33.6562 31.7567C33.6601 33.1367 33.2538 34.4867 32.4888 35.6352C31.7238 36.7838 30.6348 37.679 29.3599 38.2073C28.0851 38.7356 26.682 38.8731 25.3289 38.6023C23.9757 38.3315 22.7336 37.6647 21.7603 36.6865C20.6719 35.598 19.9832 34.0943 19.6944 32.1753L22.5019 31.157C22.6782 32.8052 23.1114 33.9736 23.8017 34.6622C24.5719 35.4196 25.6103 35.8417 26.6905 35.8366C27.7707 35.8315 28.8051 35.3996 29.5681 34.6349C30.3311 33.8703 30.7609 32.835 30.7637 31.7548C30.7666 30.6746 30.3422 29.637 29.5832 28.8684C28.7795 28.0761 27.8259 27.452 26.7781 27.0326Z" fill="#2A6DAF"/>
</g>
<defs>
<clipPath id="clip0">
<rect width="206.098" height="70" fill="white"/>
</clipPath>
</defs>
</svg>
