<svg width="70" height="70" viewBox="0 0 70 70" fill="none" xmlns="http://www.w3.org/2000/svg">
<g clip-path="url(#clip0)">
<path d="M69.5406 20.3424C69.5406 14.19 65.0152 9.24082 59.4234 9.24082C51.8492 8.88672 44.1246 8.75 36.2305 8.75H33.7695C25.8945 8.75 18.1562 8.88672 10.582 9.24219C5.00391 9.24219 0.478515 14.2188 0.478515 20.3711C0.136719 25.2369 -0.00820333 30.1041 -2.06429e-07 34.9713C-0.0136721 39.8385 0.141276 44.7102 0.464844 49.5865C0.464844 55.7389 4.99023 60.7291 10.5684 60.7291C18.5254 61.0982 26.6875 61.2623 34.9863 61.2486C43.2988 61.276 51.4381 61.1028 59.4043 60.7291C64.9961 60.7291 69.5215 55.7389 69.5215 49.5865C69.8496 44.7057 70 39.8385 69.9863 34.9576C70.0173 30.0904 69.8687 25.2187 69.5406 20.3424ZM28.3008 48.3834V21.5182L48.125 34.9439L28.3008 48.3834Z" fill="white"/>
</g>
<defs>
<clipPath id="clip0">
<rect width="70" height="70" fill="white"/>
</clipPath>
</defs>
</svg>
