<svg width="177" height="60" viewBox="0 0 177 60" fill="none" xmlns="http://www.w3.org/2000/svg">
<g clip-path="url(#clip0)">
<path d="M62.6142 21.5658C60.8308 20.9714 59.423 20.1581 58.3908 19.1258C57.4697 18.1169 56.9737 16.7912 57.0065 15.4254C57.0393 14.0596 57.5982 12.7593 58.5667 11.7957C59.5352 10.8321 60.8383 10.2797 62.2042 10.2538C63.5702 10.2279 64.8933 10.7305 65.8976 11.6568C66.4444 12.1671 66.8536 12.8072 67.0872 13.5177L65.8284 14.0192C65.6274 13.488 65.3123 13.0074 64.9052 12.6114C64.5427 12.2495 64.1123 11.9625 63.6389 11.767C63.1654 11.5714 62.658 11.4709 62.1457 11.4714C61.1111 11.4724 60.1193 11.8844 59.3884 12.6166C58.6575 13.3489 58.2475 14.3415 58.2485 15.3761C58.2495 16.4107 58.6614 17.4026 59.3937 18.1334C60.2575 18.9354 61.2506 19.5859 62.3309 20.0574C64.2335 20.6437 65.967 21.6792 67.3851 23.0764C68.2058 23.9035 68.8198 24.9126 69.1772 26.0216C69.5345 27.1307 69.6252 28.3084 69.4417 29.459C69.2583 30.6096 68.8059 31.7008 68.1214 32.6437C67.437 33.5866 66.5397 34.3548 65.5025 34.8857C64.4653 35.4166 63.3174 35.6953 62.1523 35.6991C60.9871 35.7029 59.8374 35.4318 58.7968 34.9077C57.7561 34.3836 56.8538 33.6214 56.1632 32.6829C55.4725 31.7445 55.013 30.6564 54.822 29.507L56.1522 29.0223C56.265 29.9783 56.6048 30.8934 57.1432 31.6913C57.6817 32.4893 58.4031 33.1469 59.2474 33.6092C60.0917 34.0716 61.0344 34.3253 61.9967 34.3492C62.959 34.3731 63.913 34.1666 64.7793 33.7467C65.6455 33.3269 66.3988 32.706 66.9762 31.9358C67.5536 31.1656 67.9385 30.2685 68.0986 29.3193C68.2588 28.3701 68.1896 27.3964 67.8969 26.4794C67.6042 25.5624 67.0963 24.7287 66.4158 24.0478C65.3274 22.9746 64.0346 22.1306 62.6142 21.5658Z" fill="#596770"/>
<path d="M88.4705 35.436H87.0627V32.3079C86.7886 32.6765 86.4908 33.0269 86.1711 33.3569C84.9686 34.5612 83.4358 35.3817 81.7669 35.7146C80.0979 36.0476 78.3677 35.8779 76.7951 35.2272C75.2226 34.5766 73.8784 33.474 72.9326 32.0592C71.9869 30.6443 71.4821 28.9807 71.4821 27.2788C71.4821 25.577 71.9869 23.9134 72.9326 22.4985C73.8784 21.0836 75.2226 19.9811 76.7951 19.3304C78.3677 18.6797 80.0979 18.5101 81.7669 18.843C83.4358 19.176 84.9686 19.9965 86.1711 21.2008C86.4906 21.5308 86.7885 21.8813 87.0627 22.2498V20.0741H88.4705V35.436ZM87.0627 28.6782V25.8941C86.7175 24.1857 85.7498 22.6665 84.3475 21.6314C82.9452 20.5963 81.2083 20.1191 79.474 20.2926C77.7397 20.4661 76.1317 21.2777 74.9622 22.5701C73.7927 23.8624 73.145 25.5432 73.145 27.2862C73.145 29.0291 73.7927 30.7099 74.9622 32.0023C76.1317 33.2946 77.7397 34.1063 79.474 34.2797C81.2083 34.4532 82.9452 33.9761 84.3475 32.941C85.7498 31.9059 86.7175 30.3867 87.0627 28.6782Z" fill="#596770"/>
<path d="M94.3954 21.4819V35.4361H92.9876V21.4819H91.4225V20.0742H92.9876V15.9116C93.0376 14.7835 93.5128 13.716 94.3178 12.924C95.11 12.1567 96.171 11.7297 97.2739 11.7344C97.9032 11.7426 98.5269 11.8538 99.1202 12.0638L98.6817 13.3226C98.2854 13.1448 97.8572 13.0491 97.4229 13.0415C96.6353 13.0599 95.8847 13.3789 95.3248 13.9332C94.7537 14.4773 94.4217 15.2258 94.4017 16.0144V20.0825H97.5299V21.4903L94.3954 21.4819Z" fill="#596770"/>
<path d="M102.67 32.5575C103.951 33.7509 105.645 34.4014 107.395 34.3723C108.33 34.387 109.258 34.2098 110.122 33.8519C110.986 33.4939 111.767 32.9627 112.418 32.2911C112.595 32.1134 112.762 31.9309 112.919 31.7435L114.405 32.2764C114.126 32.6599 113.817 33.0205 113.481 33.3548C112.309 34.5191 110.825 35.3202 109.209 35.6619C107.592 36.0036 105.911 35.8715 104.368 35.2813C102.824 34.6911 101.484 33.668 100.508 32.3348C99.532 31.0016 98.9615 29.415 98.865 27.7654C98.7686 26.1159 99.1503 24.4736 99.9644 23.0357C100.778 21.5978 101.99 20.4254 103.454 19.6594C104.918 18.8934 106.572 18.5662 108.218 18.7172C109.863 18.8681 111.43 19.4909 112.73 20.5105C112.981 20.7189 113.231 20.9483 113.481 21.1987C113.575 21.2924 113.664 21.3861 113.748 21.4798L112.684 22.5435L102.67 32.5575ZM111.65 21.591C110.283 20.5696 108.594 20.0748 106.892 20.1973C105.19 20.3198 103.589 21.0513 102.382 22.2579C101.176 23.4644 100.444 25.0653 100.322 26.7673C100.199 28.4693 100.694 30.1584 101.716 31.5253L111.65 21.591Z" fill="#596770"/>
<path d="M122.35 22.5918C120.576 21.9974 119.14 21.1498 118.04 20.049C117.5 19.5159 117.075 18.8779 116.791 18.1743C116.507 17.4707 116.371 16.7163 116.389 15.9578C116.395 14.8022 116.743 13.6742 117.388 12.7154C118.033 11.7566 118.947 11.0097 120.015 10.5686C121.083 10.1275 122.257 10.0117 123.391 10.236C124.525 10.4602 125.567 11.0143 126.386 11.8288C127.033 12.454 127.575 13.4499 128.012 14.8164L125.075 15.9746C124.721 15.0151 124.398 14.3891 124.106 14.0968C123.61 13.613 122.945 13.3422 122.252 13.3422C121.56 13.3422 120.894 13.613 120.399 14.0968C120.151 14.3369 119.955 14.6255 119.823 14.9446C119.691 15.2636 119.627 15.6064 119.633 15.9515C119.627 16.2975 119.691 16.6412 119.823 16.9612C119.955 17.2813 120.151 17.571 120.399 17.8125C121.098 18.459 121.902 18.9825 122.776 19.3608C124.656 19.9484 126.368 20.9787 127.767 22.3652C128.511 23.0743 129.1 23.9296 129.497 24.8774C129.894 25.8253 130.091 26.845 130.075 27.8726C130.08 29.419 129.624 30.9318 128.767 32.2189C127.91 33.5061 126.69 34.5093 125.261 35.1012C123.833 35.693 122.26 35.8468 120.744 35.543C119.228 35.2391 117.836 34.4913 116.746 33.3947C115.526 32.175 114.757 30.4903 114.438 28.3405L117.585 27.1991C117.782 29.0454 118.267 30.3546 119.039 31.1267C119.905 31.961 121.064 32.4217 122.267 32.4097C123.469 32.3977 124.619 31.9138 125.468 31.0624C126.317 30.211 126.798 29.0601 126.807 27.8576C126.816 26.655 126.352 25.4971 125.516 24.6332C124.607 23.7483 123.531 23.0542 122.35 22.5918Z" fill="#2A6DAF"/>
<path d="M146.36 20.4644V19.3377H149.61V35.4507H146.356V33.4324C144.792 35.0493 142.977 35.8577 140.911 35.8577C138.55 35.8577 136.286 34.9199 134.617 33.2504C132.947 31.581 132.009 29.3167 132.009 26.9557C132.009 24.5948 132.947 22.3305 134.617 20.6611C136.286 18.9916 138.55 18.0537 140.911 18.0537C142.979 18.0551 144.795 18.8587 146.36 20.4644ZM146.36 28.1453V25.7619C146.152 24.7127 145.627 23.7522 144.858 23.0093C144.078 22.2312 143.086 21.7017 142.005 21.4875C140.925 21.2734 139.806 21.3843 138.788 21.8062C137.771 22.228 136.902 22.942 136.29 23.8578C135.678 24.7737 135.352 25.8502 135.352 26.9515C135.352 28.0528 135.678 29.1294 136.29 30.0452C136.902 30.9611 137.771 31.675 138.788 32.0969C139.806 32.5188 140.925 32.6297 142.005 32.4155C143.086 32.2014 144.078 31.6718 144.858 30.8938C145.627 30.152 146.151 29.1931 146.36 28.1453Z" fill="#2A6DAF"/>
<path d="M156.775 10.3895V35.436H153.521V10.3895H156.775Z" fill="#2A6DAF"/>
<path d="M165.675 31.7917C166.217 32.2715 167.203 32.5114 168.631 32.5114C169.366 32.5232 170.097 32.3851 170.777 32.1056C171.458 31.8261 172.075 31.4109 172.59 30.8854C172.73 30.7455 173.009 30.4224 173.429 29.9161L176.666 31.0742C176.141 31.8358 175.567 32.562 174.946 33.2478C173.729 34.4561 172.189 35.2873 170.511 35.6416C168.833 35.9958 167.089 35.858 165.487 35.2447C163.886 34.6314 162.496 33.5688 161.484 32.1844C160.472 30.8 159.881 29.1528 159.782 27.4408C159.684 25.7288 160.082 24.0247 160.929 22.5334C161.775 21.0422 163.034 19.8271 164.555 19.0342C166.076 18.2414 167.793 17.9045 169.5 18.064C171.208 18.2236 172.833 18.8727 174.18 19.9336C174.44 20.1532 174.695 20.3881 174.946 20.6385C175.049 20.7434 175.347 21.0721 175.837 21.6246L174.211 23.2674L165.675 31.7917ZM171.088 21.7799C170.722 21.5001 169.903 21.3602 168.631 21.3602C167.152 21.3636 165.735 21.9536 164.691 23.0008C163.647 24.0479 163.061 25.4666 163.062 26.9453C163.062 28.2041 163.202 29.023 163.482 29.4021L171.088 21.7799Z" fill="#2A6DAF"/>
<path d="M55.6465 49.8182V42.9408H56.5361V48.9244H58.995V49.8182H55.6465Z" fill="#596770"/>
<path d="M65.6123 43.8828C66.1875 44.4588 66.5451 45.2163 66.6244 46.0264C66.7037 46.8365 66.4996 47.649 66.047 48.3255C65.5943 49.002 64.9212 49.5007 64.1421 49.7365C63.3631 49.9723 62.5263 49.9308 61.7745 49.6189C61.0227 49.307 60.4022 48.7441 60.0189 48.026C59.6355 47.308 59.513 46.4793 59.6722 45.681C59.8313 44.8828 60.2623 44.1644 60.8917 43.6483C61.5212 43.1322 62.3101 42.8503 63.124 42.8506C63.5873 42.8436 64.047 42.9316 64.475 43.1091C64.903 43.2867 65.29 43.55 65.6123 43.8828ZM63.124 43.7506C62.5184 43.7511 61.9317 43.9616 61.4638 44.3461C60.9959 44.7306 60.6758 45.2654 60.5579 45.8595C60.4401 46.4535 60.5318 47.07 60.8174 47.604C61.1031 48.1381 61.5651 48.5565 62.1246 48.7882C62.6842 49.0199 63.3067 49.0504 63.8863 48.8746C64.4658 48.6988 64.9665 48.3276 65.3031 47.8241C65.6396 47.3206 65.7912 46.716 65.7321 46.1133C65.6729 45.5106 65.4067 44.947 64.9787 44.5185C64.7389 44.2698 64.4505 44.0731 64.1315 43.9406C63.8124 43.8081 63.4695 43.7428 63.124 43.7485V43.7506Z" fill="#596770"/>
<path d="M73.1506 48.1796L73.8178 48.7776C73.0037 49.5203 72.1428 49.8909 71.235 49.8895C70.3033 49.8895 69.4097 49.5194 68.7509 48.8605C68.092 48.2017 67.7219 47.3081 67.7219 46.3763C67.7219 45.4446 68.092 44.551 68.7509 43.8921C69.4097 43.2333 70.3033 42.8632 71.235 42.8632C72.1428 42.8632 73.0037 43.2338 73.8178 43.9751L73.1506 44.5815C72.6371 44.0787 71.9533 43.7874 71.235 43.7653C70.5414 43.7653 69.8763 44.0408 69.3858 44.5313C68.8954 45.0217 68.6198 45.6869 68.6198 46.3805C68.6198 47.0741 68.8954 47.7393 69.3858 48.2298C69.8763 48.7202 70.5414 48.9958 71.235 48.9958C71.9533 48.9737 72.6371 48.6824 73.1506 48.1796Z" fill="#596770"/>
<path d="M77.2669 42.9408L79.7678 49.8161H78.8216L77.9362 47.3844H76.1151L75.2339 49.8161H74.2898L76.7907 42.9408H77.2669ZM77.6152 46.4949L77.0257 44.8836L76.4403 46.4949H77.6152Z" fill="#596770"/>
<path d="M80.6281 49.8182V42.9408H81.5176V48.9244H83.9766V49.8182H80.6281Z" fill="#596770"/>
<path d="M85.9822 42.9408V49.8161H85.0927V42.9408H85.9822Z" fill="#596770"/>
<path d="M90.8183 43.8303H87.56V42.9408H92.3561L88.8965 48.9223H92.1631V49.8161H87.3628L90.8183 43.8303Z" fill="#596770"/>
<path d="M96.2019 42.9408L98.7027 49.8161H97.7565L96.8712 47.3844H95.0605L94.1794 49.8161H93.2289L95.7298 42.9408H96.2019ZM96.5501 46.4949L95.9606 44.8836L95.3752 46.4949H96.5501Z" fill="#596770"/>
<path d="M99.5629 42.9408H100.375L103.211 47.8481V42.9408H104.105V49.8161H103.327L100.452 44.8542V49.8224H99.5629V42.9408Z" fill="#596770"/>
<path d="M106.048 42.9408C107.167 42.9408 108.038 43.2576 108.66 43.8912C109.318 44.5521 109.688 45.4468 109.688 46.3795C109.688 47.3121 109.318 48.2068 108.66 48.8677C108.035 49.4958 107.164 49.8126 106.048 49.8182H105.396V42.9408H106.048ZM106.285 43.8471V48.9139C106.607 48.9252 106.927 48.8704 107.227 48.7527C107.526 48.635 107.799 48.4571 108.026 48.2299C108.517 47.738 108.792 47.0718 108.792 46.3774C108.792 45.6829 108.517 45.0167 108.026 44.5248C107.798 44.299 107.525 44.1225 107.226 44.0059C106.926 43.8894 106.606 43.8354 106.285 43.8471Z" fill="#596770"/>
<path d="M116.67 43.8828C117.245 44.4585 117.602 45.2156 117.681 46.0251C117.76 46.8347 117.556 47.6466 117.104 48.3226C116.652 48.9986 115.979 49.4968 115.2 49.7324C114.422 49.9681 113.586 49.9265 112.834 49.6148C112.083 49.3031 111.463 48.7406 111.08 48.0231C110.697 47.3056 110.574 46.4774 110.733 45.6797C110.892 44.882 111.323 44.1641 111.952 43.6482C112.58 43.1323 113.369 42.8504 114.182 42.8506C114.645 42.8435 115.105 42.9314 115.533 43.1089C115.961 43.2865 116.348 43.5498 116.67 43.8828ZM114.182 43.7506C113.576 43.7511 112.99 43.9616 112.522 44.3461C112.054 44.7306 111.734 45.2654 111.616 45.8595C111.498 46.4535 111.59 47.07 111.876 47.604C112.161 48.138 112.623 48.5565 113.183 48.7882C113.742 49.0199 114.365 49.0504 114.944 48.8746C115.524 48.6988 116.025 48.3276 116.361 47.8241C116.698 47.3206 116.849 46.716 116.79 46.1133C116.731 45.5105 116.465 44.947 116.037 44.5185C115.797 44.2693 115.507 44.0722 115.188 43.9397C114.868 43.8073 114.524 43.7422 114.178 43.7485L114.182 43.7506Z" fill="#596770"/>
<path d="M123.888 43.8303V49.8161H122.994V43.8303H121.391V42.9408H125.482V43.8303H123.888Z" fill="#596770"/>
<path d="M130.131 42.9408H131.025V47.7914C130.959 48.3216 130.719 48.8147 130.341 49.1929C130.014 49.5184 129.599 49.7398 129.146 49.8294C128.694 49.919 128.225 49.8727 127.799 49.6964C127.373 49.5201 127.008 49.2216 126.751 48.8386C126.494 48.4556 126.356 48.0051 126.355 47.5439V42.9492H127.249V47.5439C127.249 47.927 127.401 48.2944 127.672 48.5653C127.943 48.8362 128.31 48.9884 128.693 48.9884C129.076 48.9884 129.444 48.8362 129.715 48.5653C129.986 48.2944 130.138 47.927 130.138 47.5439L130.131 42.9408Z" fill="#596770"/>
<path d="M136.333 42.9408V49.8161H135.444V42.9408H136.333Z" fill="#596770"/>
<path d="M137.712 42.9408H138.524L141.36 47.8481V42.9408H142.254V49.8161H141.476L138.601 44.8542V49.8224H137.712V42.9408Z" fill="#596770"/>
<path d="M144.574 42.9408L146.805 46.7949L149.026 42.9408H149.838V49.8161H148.949V44.8542L146.805 48.5677L144.644 44.8542V49.8224H143.754V42.9408H144.574Z" fill="#596770"/>
<path d="M155.113 42.9408H156.007V47.7914C155.941 48.3216 155.7 48.8147 155.323 49.1929C154.996 49.5184 154.58 49.7398 154.128 49.8294C153.675 49.919 153.206 49.8727 152.78 49.6964C152.354 49.5201 151.99 49.2216 151.733 48.8386C151.476 48.4556 151.338 48.0051 151.336 47.5439V42.9492H152.23V47.5439C152.23 47.927 152.382 48.2944 152.653 48.5653C152.924 48.8362 153.292 48.9884 153.675 48.9884C154.058 48.9884 154.425 48.8362 154.696 48.5653C154.967 48.2944 155.119 47.927 155.119 47.5439L155.113 42.9408Z" fill="#596770"/>
<path d="M161 42.9408V43.8303H158.185V45.9284H161V46.818H158.185V48.916H161V49.8098H157.295V42.9408H161Z" fill="#596770"/>
<path d="M163.574 42.9408C163.957 42.9413 164.325 43.0934 164.596 43.3639C164.867 43.6344 165.02 44.0012 165.022 44.3842C165.035 44.566 164.978 44.7459 164.863 44.8874C164.748 45.0288 164.584 45.1212 164.403 45.1458C164.701 45.1892 165.04 45.399 165.419 45.7752C165.616 45.9868 165.768 46.236 165.866 46.5079C165.964 46.7797 166.006 47.0686 165.989 47.3572C165.993 47.6807 165.933 48.0018 165.811 48.3016C165.689 48.6013 165.509 48.8737 165.28 49.1027C164.835 49.5643 164.39 49.7979 163.944 49.8035H162.181V42.9408H163.574ZM163.071 43.8303V44.9171H163.65C163.777 44.9076 163.897 44.8542 163.99 44.7661C164.042 44.7174 164.082 44.6581 164.109 44.5921C164.136 44.5262 164.148 44.4553 164.145 44.3842C164.147 44.3106 164.134 44.2373 164.106 44.169C164.078 44.1008 164.036 44.039 163.983 43.9877C163.928 43.9342 163.862 43.8926 163.79 43.8656C163.718 43.8385 163.641 43.8265 163.564 43.8303H163.071ZM163.071 45.834V48.9244H163.944V48.9118C164.127 48.9006 164.355 48.7531 164.628 48.4691C164.773 48.3244 164.888 48.152 164.965 47.9621C165.043 47.7721 165.081 47.5686 165.079 47.3634C165.078 46.9581 164.916 46.5698 164.629 46.2832C164.343 45.9966 163.954 45.8351 163.549 45.834H163.071Z" fill="#596770"/>
<path d="M167.024 49.8182V42.9408H167.913V48.9244H170.37V49.8182H167.024Z" fill="#596770"/>
<path d="M175.105 42.9408V43.8303H172.29V45.9284H175.105V46.818H172.29V48.916H175.105V49.8098H171.4V42.9408H175.105Z" fill="#596770"/>
<path d="M6.73264 23.2443C6.8879 13.8367 14.8311 7.20472 22.6023 7.28235C40.4882 7.45859 48.6181 31.1498 23.1079 60.0021C23.1079 60.0021 45.8675 44.4367 45.8675 23.0324C45.8675 7.34948 33.7282 1.6323 26.1186 0.318925C25.8501 0.272768 13.5177 0.318925 7.79007 10.5008C3.36318 18.3726 5.34164 26.3767 8.54956 30.9001C7.30536 28.5432 6.68017 25.9089 6.73264 23.2443Z" fill="url(#paint0_linear)"/>
<path d="M4.58218 23.3492C6.22915 33.21 14.9277 39.6804 22.894 39.6804C28.0258 39.6804 36.3005 36.4179 38.472 27.6586C36.8439 42.8652 23.901 57.6124 22.1072 59.2888C17.6845 56.0158 -0.00415039 41.7575 -0.00415039 23.0303C-0.00415039 4.72901 16.5264 0 23.0996 0C10.4399 1.0763 2.71911 12.2127 4.58218 23.3492Z" fill="url(#paint1_linear)"/>
<path d="M22.9527 23.1709C21.7168 22.7883 20.5874 22.1223 19.6545 21.226C19.2421 20.8178 18.9176 20.3295 18.7011 19.7911C18.4846 19.2528 18.3806 18.6758 18.3957 18.0957C18.4017 17.2133 18.6678 16.3523 19.1607 15.6204C19.6536 14.8885 20.3514 14.3183 21.1668 13.981C21.9821 13.6438 22.8789 13.5545 23.7448 13.7243C24.6106 13.8942 25.4072 14.3157 26.0347 14.936C26.5284 15.4144 26.9432 16.176 27.2789 17.2208L25.0297 18.1062C24.7584 17.3719 24.5108 16.8935 24.287 16.6711C23.9077 16.301 23.3987 16.0938 22.8688 16.0938C22.3388 16.0938 21.8298 16.301 21.4505 16.6711C21.2606 16.8546 21.1107 17.0752 21.0099 17.3192C20.9092 17.5633 20.8599 17.8254 20.8651 18.0894C20.8602 18.3542 20.9096 18.6173 21.0102 18.8623C21.1109 19.1073 21.2608 19.3291 21.4505 19.514C21.9855 20.0089 22.6006 20.4097 23.2695 20.6994C24.7088 21.1516 26.0184 21.9431 27.0879 23.0072C27.6559 23.5501 28.1055 24.2046 28.4085 24.9296C28.7114 25.6546 28.8611 26.4345 28.8482 27.2201C28.8515 28.4029 28.5032 29.56 27.8476 30.5445C27.1919 31.529 26.2584 32.2963 25.1657 32.7492C24.073 33.202 22.8703 33.3198 21.7105 33.0877C20.5506 32.8556 19.486 32.284 18.6517 31.4456C17.7188 30.5126 17.1285 29.2237 16.8809 27.5789L19.2874 26.7061C19.4384 28.1188 19.8098 29.1202 20.4015 29.7105C21.0616 30.3597 21.9517 30.7215 22.8776 30.7171C23.8035 30.7128 24.6901 30.3425 25.3441 29.6871C25.9981 29.0317 26.3665 28.1443 26.3689 27.2184C26.3713 26.2925 26.0076 25.4032 25.357 24.7444C24.6682 24.0652 23.8508 23.5303 22.9527 23.1709Z" fill="#2A6DAF"/>
</g>
<defs>
<linearGradient id="paint0_linear" x1="22.4827" y1="8.87477" x2="35.113" y2="59.2783" gradientUnits="userSpaceOnUse">
<stop stop-color="#85E2F4"/>
<stop offset="1" stop-color="#023A91"/>
</linearGradient>
<linearGradient id="paint1_linear" x1="1.50435" y1="-0.8602" x2="27.9859" y2="43.6709" gradientUnits="userSpaceOnUse">
<stop stop-color="#023A91"/>
<stop offset="1" stop-color="#85E2F4"/>
</linearGradient>
<clipPath id="clip0">
<rect width="176.656" height="60" fill="white"/>
</clipPath>
</defs>
</svg>
